<svg width="383" height="378" viewBox="0 0 383 378" fill="none" xmlns="http://www.w3.org/2000/svg">
<path d="M351.786 355.099H380.371" stroke="#263238" stroke-miterlimit="10"/>
<path d="M32.4603 355.099H342.723" stroke="#263238" stroke-miterlimit="10"/>
<path d="M8.06053 355.099H24.7921" stroke="#263238" stroke-miterlimit="10"/>
<path d="M94.3727 28.9736H142.2V90.4633H94.3727V28.9736Z" stroke="#263238" stroke-linecap="round" stroke-linejoin="round"/>
<path d="M97.4656 32.9436H139.115V86.494H97.4656V32.9436Z" stroke="#263238" stroke-linecap="round" stroke-linejoin="round"/>
<path d="M111.567 51.0781H125.014V68.3676H111.567V51.0781Z" stroke="#263238" stroke-linecap="round" stroke-linejoin="round"/>
<path d="M150.896 74.9355H198.724V136.425H150.896V74.9355Z" stroke="#263238" stroke-linecap="round" stroke-linejoin="round"/>
<path d="M153.989 78.9048H195.639V132.455H153.989V78.9048Z" stroke="#263238" stroke-linecap="round" stroke-linejoin="round"/>
<path d="M168.09 97.0393H181.538V114.329H168.09V97.0393Z" stroke="#263238" stroke-linecap="round" stroke-linejoin="round"/>
<path d="M33.1941 74.9355H81.0212V136.425H33.1941V74.9355Z" stroke="#263238" stroke-linecap="round" stroke-linejoin="round"/>
<path d="M36.2869 78.9048H77.9363V132.455H36.2869V78.9048Z" stroke="#263238" stroke-linecap="round" stroke-linejoin="round"/>
<path d="M50.3879 97.0393H63.8353V114.329H50.3879V97.0393Z" stroke="#263238" stroke-linecap="round" stroke-linejoin="round"/>
<path d="M94.3727 100.14H142.2V136.058H94.3727V100.14Z" stroke="#263238" stroke-linecap="round" stroke-linejoin="round"/>
<path d="M97.4656 102.46H139.115V133.739H97.4656V102.46Z" stroke="#263238" stroke-linecap="round" stroke-linejoin="round"/>
<path d="M111.567 113.053H125.014V123.153H111.567V113.053Z" stroke="#263238" stroke-linecap="round" stroke-linejoin="round"/>
<path d="M89.3748 178.68V147.736H112.611V178.68H89.3748Z" stroke="#263238" stroke-linecap="round" stroke-linejoin="round"/>
<path d="M90.8735 176.687V149.737H111.112V176.687H90.8735Z" stroke="#263238" stroke-linecap="round" stroke-linejoin="round"/>
<path d="M97.7287 167.561V158.864H104.265V167.561H97.7287Z" stroke="#263238" stroke-linecap="round" stroke-linejoin="round"/>
<path d="M123.723 178.68V147.736H146.959V178.68H123.723Z" stroke="#263238" stroke-linecap="round" stroke-linejoin="round"/>
<path d="M125.221 176.687V149.737H145.46V176.687H125.221Z" stroke="#263238" stroke-linecap="round" stroke-linejoin="round"/>
<path d="M132.076 167.553V158.856H138.613V167.553H132.076Z" stroke="#263238" stroke-linecap="round" stroke-linejoin="round"/>
<path d="M124.687 271.385H172.482V274.518H124.687V271.385Z" fill="#263238" stroke="#263238" stroke-linecap="round" stroke-linejoin="round"/>
<path d="M122.702 271.385H143.347V274.518H122.702V271.385Z" fill="white" stroke="#263238" stroke-linecap="round" stroke-linejoin="round"/>
<path d="M124.687 268.181H172.482V271.314H124.687V268.181Z" fill="white" stroke="#263238" stroke-linecap="round" stroke-linejoin="round"/>
<path d="M122.702 268.181H143.347V271.314H122.702V268.181Z" fill="white" stroke="#263238" stroke-linecap="round" stroke-linejoin="round"/>
<path d="M124.687 264.984H172.482V268.117H124.687V264.984Z" fill="#92E3A9" stroke="#263238" stroke-linecap="round" stroke-linejoin="round"/>
<path d="M122.702 264.984H143.347V268.117H122.702V264.984Z" fill="white" stroke="#263238" stroke-linecap="round" stroke-linejoin="round"/>
<path d="M124.687 261.78H172.482V264.912H124.687V261.78Z" fill="white" stroke="#263238" stroke-linecap="round" stroke-linejoin="round"/>
<path d="M122.702 261.78H143.347V264.912H122.702V261.78Z" fill="white" stroke="#263238" stroke-linecap="round" stroke-linejoin="round"/>
<path d="M124.687 258.584H172.482V261.716H124.687V258.584Z" fill="#92E3A9" stroke="#263238" stroke-linecap="round" stroke-linejoin="round"/>
<path d="M122.702 258.584H143.347V261.716H122.702V258.584Z" fill="white" stroke="#263238" stroke-linecap="round" stroke-linejoin="round"/>
<path d="M105.636 222.37C105.636 221.932 100.287 221.693 93.6791 221.844C87.071 221.996 81.7861 222.482 81.7941 222.92C81.8021 223.359 87.1428 223.598 93.7509 223.447C100.359 223.295 105.644 222.793 105.636 222.37Z" fill="white" stroke="#263238" stroke-linecap="round" stroke-linejoin="round"/>
<path d="M87.4937 224.818C85.9321 221.707 83.9822 218.806 81.6907 216.185C77.7051 211.53 71.3281 204.34 70.5789 202.06C69.8296 199.78 72.0296 203.965 79.7856 208.437C87.5415 212.909 90.2597 226.03 90.2597 226.03L87.4937 224.818Z" fill="#92E3A9" stroke="#263238" stroke-miterlimit="10"/>
<path d="M91.2639 226.029C91.2639 226.029 92.1169 219.389 88.2987 209.848C84.4805 200.306 83.237 196.153 83.237 196.153" stroke="#263238" stroke-width="2" stroke-linecap="round" stroke-linejoin="round"/>
<path d="M93.7269 226.691C93.7269 226.691 95.1617 214.287 96.9154 209.792C98.6691 205.296 99.0836 204.132 99.0836 204.132" stroke="#263238" stroke-width="2" stroke-linecap="round" stroke-linejoin="round"/>
<path d="M96.9314 209.792C96.9314 209.792 94.54 208.995 94.54 205.384C94.54 199.923 100.279 198.497 100.279 198.497L101.18 199.915L102.894 199.589C102.894 199.589 103.858 203.877 102.097 207.225C101.641 208.164 100.886 208.925 99.9518 209.389C99.0172 209.854 97.955 209.995 96.9314 209.792Z" fill="white" stroke="#263238" stroke-miterlimit="10"/>
<path d="M86.1703 204.714C86.1703 204.714 84.7514 205.472 80.5108 202.403C76.2701 199.334 75.9831 193.3 75.9831 193.3L80.7658 194.487L82.4318 192L85.1978 193.523L88.2986 190.717C88.2986 190.717 92.2125 198.68 86.1703 204.714Z" fill="white" stroke="#263238" stroke-miterlimit="10"/>
<path d="M91.1044 227.504C91.6769 224.067 91.8109 220.572 91.503 217.102C91.0247 210.988 90.1399 201.438 90.8653 199.143C91.5906 196.847 90.9131 201.534 94.524 209.744C98.135 217.955 92.603 230.127 92.603 230.127L91.1044 227.504Z" fill="#92E3A9" stroke="#263238" stroke-miterlimit="10"/>
<path d="M94.03 224.347C96.6166 222.012 98.896 219.358 100.813 216.448C104.241 211.37 109.486 203.335 111.487 201.988C113.488 200.641 110.036 203.893 107.756 212.566C105.445 221.334 93.5756 227.329 93.5756 227.329L94.03 224.347Z" fill="#92E3A9" stroke="#263238" stroke-miterlimit="10"/>
<path d="M81.6907 222.92H81.8342C81.9697 223.351 87.2546 223.582 93.7511 223.431C100.128 223.287 105.301 222.833 105.62 222.402C104.026 224.929 102.982 224.921 102.344 227.48C101.316 231.617 102.344 232.59 104.935 235.977C107.637 239.516 109.359 260.592 109.478 265.917C109.733 277.077 102.91 276.12 94.2373 276.319C85.5647 276.519 78.295 277.786 78.0718 266.642C77.9363 260.855 79.666 239.333 82.6552 235.555C85.6444 231.776 86.306 230.11 84.6161 225.671C83.8987 223.821 82.9501 224.69 81.6907 222.92Z" fill="#263238"/>
<path d="M179.489 355.099H184.407L178.716 303.82H168.871L179.489 355.099Z" fill="#C4C4C4" stroke="#263238" stroke-miterlimit="10"/>
<path d="M61.9139 355.099H56.9957L62.6951 303.82H72.5316L61.9139 355.099Z" fill="#C4C4C4" stroke="#263238" stroke-miterlimit="10"/>
<path d="M49.7419 274.813H190.625V279.994H49.7419V274.813Z" fill="#C4C4C4" stroke="#263238" stroke-miterlimit="10"/>
<path d="M55.4414 279.994H185.443V307.965H55.4414V279.994Z" fill="#C4C4C4" stroke="#263238" stroke-miterlimit="10"/>
<path d="M76.1586 284.657H164.726V301.23H76.1586V284.657Z" fill="#C4C4C4" stroke="#263238" stroke-miterlimit="10"/>
<path d="M110.347 290.867H130.546V295.012H110.347V290.867Z" fill="#263238"/>
<path d="M265.004 185.615C265.442 188.963 265.753 192.335 265.897 195.707L266.694 212.263L269.779 274.813H266.543L264.661 212.335L264.167 195.77C264.095 192.638 263.864 189.521 263.529 186.412L263.29 186.532C263.29 186.532 257.073 188.684 253.725 187.488C250.377 186.293 243.928 178.888 240.341 167.895C236.754 156.903 233.167 116.768 235.104 116.569C237.041 116.37 264.47 133.731 271.644 142.81C278.818 151.889 281.919 169.115 279.288 174.352C277.264 178.449 268.687 183.559 265.004 185.615Z" fill="#263238"/>
<path d="M282.66 198.242C282.66 198.242 282.389 198.018 281.975 197.628C281.491 198.946 281.089 200.293 280.771 201.661C280.495 202.876 280.308 204.11 280.213 205.352C280.125 206.564 280.133 207.887 280.094 209.162L279.99 216.862C279.823 236.169 279.886 255.499 279.99 274.813H276.801C277.136 255.483 277.495 236.153 278.101 216.822L278.38 209.106C278.444 207.807 278.467 206.556 278.579 205.208C278.71 203.89 278.933 202.582 279.249 201.295C279.664 199.651 280.197 198.039 280.843 196.472C279.006 194.653 277.506 192.524 276.411 190.183C274.649 185.942 281.752 180.562 287.722 172.439C293.692 164.316 318.499 150.454 327.586 148.302C336.673 146.15 340.244 142.571 336.904 149.498C333.564 156.425 313.238 182.236 313.238 182.236C313.238 182.236 292.449 200.633 287.196 200.633C281.943 200.633 282.66 198.242 282.66 198.242Z" fill="#263238"/>
<path d="M273.278 125.465C273.671 132.639 274.054 139.813 274.426 146.987C275.151 161.375 275.853 175.763 276.363 190.175C276.467 193.778 276.594 197.349 276.658 200.992C276.706 202.793 276.724 204.603 276.714 206.42C276.714 207.329 276.714 208.222 276.714 209.146L276.618 211.912C276.18 219.015 276.164 226.221 276.148 233.434C276.148 247.225 276.379 261.031 276.666 274.829H272.856C272.816 261.015 272.856 247.217 273.079 233.379C273.222 226.205 273.358 218.959 273.94 211.697L274.075 209.067C274.123 208.19 274.075 207.281 274.131 206.396C274.168 204.611 274.168 202.817 274.131 201.016C274.131 197.429 274.075 193.842 274.027 190.231C273.78 175.843 273.334 161.447 272.864 147.051C272.624 139.94 272.372 132.827 272.106 125.712C267.076 126.652 262.541 125.266 259.926 122.523C253.478 115.596 250.13 102.452 249.412 93.6119C248.695 84.7719 250.369 54.9039 250.369 54.9039C250.369 54.9039 254.195 31.7317 257.057 30.9903C258.804 30.545 260.435 29.7295 261.839 28.599C261.839 28.599 260.883 27.4033 262.557 23.5851C264.231 19.7669 267.571 19.9981 269.245 22.3894C269.245 22.3894 265.658 16.6502 271.875 19.5198C278.093 22.3894 286.223 33.8679 286.446 36.4825C286.67 39.097 290.99 33.3817 292.417 37.439C293.844 41.4963 300.069 77.1036 292.656 102.428C288.471 116.864 280.556 123.607 273.278 125.465Z" fill="#263238"/>
<path d="M302.628 154.392C302.628 154.392 309.627 154.169 314.139 151.203C318.65 148.238 329.284 135.181 338.052 123.663C346.82 112.145 355.884 95.8994 357.693 90.9333C359.503 85.9673 359.503 83.4803 358.371 83.7115C357.239 83.9426 360.626 79.1918 360.85 76.4896C361.073 73.7873 357.661 72.8706 354.529 74.2257C351.396 75.5808 345.952 80.5469 345.952 80.5469C345.952 80.5469 356.561 71.0692 343.472 77.6135C330.384 84.1578 311.189 100.188 309.611 101.997C308.033 103.807 284.326 128.406 286.359 138.792C288.392 149.179 295.175 156.871 302.628 154.392Z" fill="#92E3A9" stroke="#263238" stroke-miterlimit="10"/>
<path d="M340.778 86.3979C340.594 88.252 340.551 90.1173 340.65 91.9778" stroke="#263238" stroke-miterlimit="10"/>
<path d="M341.264 80.4832C341.264 80.4832 341.121 81.9658 340.969 83.8789" stroke="#263238" stroke-miterlimit="10"/>
<path d="M334.01 84.8354C333.578 87.6026 333.63 90.4237 334.162 93.1733" stroke="#263238" stroke-miterlimit="10"/>
<path d="M327.546 97.2229C327.644 99.2578 328 101.272 328.606 103.217" stroke="#263238" stroke-miterlimit="10"/>
<path d="M327.219 91.165C327.219 91.165 327.219 93.102 327.41 95.4854" stroke="#263238" stroke-miterlimit="10"/>
<path d="M321.121 104.238C321.353 105.462 321.689 106.665 322.125 107.833" stroke="#263238" stroke-miterlimit="10"/>
<path d="M319.965 96.4255C319.965 96.4255 320.22 99.1039 320.706 102.005" stroke="#263238" stroke-miterlimit="10"/>
<path d="M311.173 105.672C311.173 105.672 313.796 116.784 314.409 118.482" stroke="#263238" stroke-miterlimit="10"/>
<path d="M301.6 120.18C301.6 120.18 304.685 125.887 307.18 127.434" stroke="#263238" stroke-miterlimit="10"/>
<path d="M296.849 136.385C298.236 136.969 299.671 137.433 301.137 137.772" stroke="#263238" stroke-miterlimit="10"/>
<path d="M292.513 134.376C292.513 134.376 293.629 134.966 295.191 135.676" stroke="#263238" stroke-miterlimit="10"/>
<path d="M292.815 143.208C295.207 143.487 298.722 143.854 301.297 143.942" stroke="#263238" stroke-miterlimit="10"/>
<path d="M290.026 142.865L291.261 143.025" stroke="#263238" stroke-miterlimit="10"/>
<path d="M347.649 94.9827C346.601 95.0514 345.549 95.014 344.509 94.8711" stroke="#263238" stroke-miterlimit="10"/>
<path d="M354.225 93.9385C352.701 94.3291 351.154 94.6272 349.594 94.8313" stroke="#263238" stroke-miterlimit="10"/>
<path d="M356.856 86.9958L350.678 87.9205" stroke="#263238" stroke-miterlimit="10"/>
<path d="M339.247 103.121C338.118 103.183 336.986 103.159 335.86 103.049" stroke="#263238" stroke-miterlimit="10"/>
<path d="M348.367 102.276C348.367 102.276 345.09 102.723 341.734 102.978" stroke="#263238" stroke-miterlimit="10"/>
<path d="M343.576 110.774C339.462 111.21 335.307 111.054 331.237 110.311" stroke="#263238" stroke-miterlimit="10"/>
<path d="M327.857 119.016C326.442 118.928 325.04 118.696 323.672 118.323" stroke="#263238" stroke-miterlimit="10"/>
<path d="M337.558 118.944C337.558 118.944 334.369 119.207 330.774 119.152" stroke="#263238" stroke-miterlimit="10"/>
<path d="M320.468 126.262C319.458 126.124 318.463 125.894 317.494 125.576" stroke="#263238" stroke-miterlimit="10"/>
<path d="M332.002 126.198C328.983 126.575 325.936 126.681 322.899 126.517" stroke="#263238" stroke-miterlimit="10"/>
<path d="M320.579 135.134C317.878 135.187 315.181 134.881 312.56 134.225" stroke="#263238" stroke-miterlimit="10"/>
<path d="M326.908 134.528C325.838 134.732 324.758 134.881 323.672 134.974" stroke="#263238" stroke-miterlimit="10"/>
<path d="M313.238 143.033C312.224 142.812 311.267 142.386 310.424 141.782" stroke="#263238" stroke-miterlimit="10"/>
<path d="M319.192 143.456C318.006 143.547 316.815 143.547 315.629 143.456" stroke="#263238" stroke-miterlimit="10"/>
<path d="M307.467 146.102C308.856 147.211 310.5 147.956 312.249 148.27" stroke="#263238" stroke-miterlimit="10"/>
<path d="M302.875 165.432L302.405 167.027C302.11 168.031 301.839 169.115 301.56 170.159L299.966 176.536C295.805 193.531 291.811 210.565 287.69 227.552L286.096 233.929L285.689 235.523C285.554 236.065 285.442 236.511 285.338 237.037C285.131 238.042 284.988 239.102 284.844 240.162C284.31 244.411 284.047 248.763 283.88 253.107C283.593 260.281 283.505 267.551 283.537 274.773H279.87C279.942 267.495 280.117 260.226 280.5 252.94C280.755 248.548 281.042 244.172 281.656 239.732C281.823 238.616 281.983 237.508 282.238 236.384C282.349 235.834 282.509 235.22 282.644 234.702L283.075 233.108L284.725 226.771C289.109 209.896 293.31 192.877 297.766 175.962L299.447 169.585C299.75 168.517 300.021 167.481 300.364 166.397L300.834 164.858C300.978 164.38 301.082 163.854 301.193 163.336C301.99 159.103 302.66 154.711 303.664 150.423C305.609 141.83 308.662 133.364 313.525 125.919C315.979 122.26 318.64 118.745 321.496 115.389C324.31 112.009 327.235 108.741 330.216 105.529C336.173 99.1147 342.335 92.8919 348.701 86.8604L349.227 87.4183C342.973 93.5136 336.909 99.8082 331.037 106.302C328.12 109.546 325.25 112.838 322.508 116.234C319.754 119.594 317.191 123.107 314.832 126.756C310.209 134.074 307.339 142.38 305.545 150.845C304.613 155.102 304.047 159.382 303.274 163.758C303.138 164.308 303.027 164.858 302.875 165.432Z" fill="#92E3A9" stroke="#263238" stroke-miterlimit="10"/>
<path d="M279.607 131.539C279.607 131.539 283.194 133.332 289.97 132.081C296.745 130.829 307.714 127.776 311.843 114.154C315.972 100.531 316.498 74.7121 316.139 72.9186C315.78 71.1251 314.888 66.8286 314.888 66.8286H312.201L313.66 62.1496L310.974 55.3422C310.974 55.3422 307.785 49.7623 307.57 49.2442C307.355 48.7261 304.884 52.2892 304.884 52.2892C304.884 52.2892 304.525 48.5268 304.525 47.9927C304.525 47.4587 300.037 45.1231 296.1 45.8405C292.162 46.5579 277.272 56.6096 270.99 66.8286C264.709 77.0477 256.642 98.3786 255.048 111.101C253.454 123.823 259.711 127.418 266.877 130.104C274.043 132.79 279.607 131.539 279.607 131.539Z" fill="#92E3A9" stroke="#263238" stroke-miterlimit="10"/>
<path d="M268.376 120.092C266.171 118.631 264.11 116.963 262.222 115.11" stroke="#263238" stroke-miterlimit="10"/>
<path d="M276.211 124.596C274.416 123.738 272.665 122.788 270.966 121.75" stroke="#263238" stroke-miterlimit="10"/>
<path d="M259.512 105.633C259.512 105.633 268.28 113.309 274.187 115.11" stroke="#263238" stroke-miterlimit="10"/>
<path d="M277.949 105.768C278.48 106.072 279.031 106.339 279.599 106.565" stroke="#263238" stroke-miterlimit="10"/>
<path d="M264.924 95.2461C268.125 98.4131 271.551 101.344 275.175 104.014" stroke="#263238" stroke-miterlimit="10"/>
<path d="M269.795 89.9373C271.723 91.6913 273.882 93.1743 276.211 94.3453" stroke="#263238" stroke-miterlimit="10"/>
<path d="M266.056 85.7686C266.823 86.8644 267.688 87.8888 268.639 88.8295" stroke="#263238" stroke-miterlimit="10"/>
<path d="M277.367 77.574C275.601 76.0349 273.998 74.3173 272.585 72.4485" stroke="#263238" stroke-miterlimit="10"/>
<path d="M287.052 85.3139C287.052 85.3139 283.394 82.7233 279.615 79.5269" stroke="#263238" stroke-miterlimit="10"/>
<path d="M274.41 67.9287C274.41 67.9287 281.178 73.8035 283.888 75.605" stroke="#263238" stroke-miterlimit="10"/>
<path d="M297.144 82.8188C295.896 83.0013 294.635 83.0813 293.373 83.058" stroke="#263238" stroke-miterlimit="10"/>
<path d="M312.337 77.1909C308.402 79.4947 304.158 81.2259 299.735 82.3323" stroke="#263238" stroke-miterlimit="10"/>
<path d="M308.726 90.2803C308.726 90.2803 298.786 93.4687 291.564 92.9905" stroke="#263238" stroke-miterlimit="10"/>
<path d="M292.895 108.566C291.093 108.642 289.288 108.567 287.499 108.343" stroke="#263238" stroke-miterlimit="10"/>
<path d="M310.751 103.6C306.155 106.021 301.168 107.613 296.02 108.303" stroke="#263238" stroke-miterlimit="10"/>
<path d="M291.612 116.513C290.073 116.413 288.546 116.17 287.052 115.788" stroke="#263238" stroke-miterlimit="10"/>
<path d="M304.429 115.341C301.169 116.105 297.837 116.522 294.489 116.584" stroke="#263238" stroke-miterlimit="10"/>
<path d="M294.274 126.175C290.911 126.659 287.516 126.885 284.119 126.852" stroke="#263238" stroke-miterlimit="10"/>
<path d="M303.545 74.3215C300.89 75.9716 297.67 77.5578 294.729 77.8607" stroke="#263238" stroke-miterlimit="10"/>
<path d="M309.172 70.1924C309.172 70.1924 307.754 71.4439 305.617 72.9504" stroke="#263238" stroke-miterlimit="10"/>
<path d="M282.31 61.8071C284.843 64.0729 287.562 66.1208 290.44 67.929" stroke="#263238" stroke-miterlimit="10"/>
<path d="M280.054 59.8062L281.01 60.675" stroke="#263238" stroke-miterlimit="10"/>
<path d="M308.455 59.8062C308.455 59.8062 303.266 65.6729 297.399 66.5737" stroke="#263238" stroke-miterlimit="10"/>
<path d="M287.275 53.7083C287.275 53.7083 290.886 57.7736 294.051 59.1287" stroke="#263238" stroke-miterlimit="10"/>
<path d="M307.371 55.7729C305.428 57.1347 303.299 58.2086 301.05 58.9614" stroke="#263238" stroke-miterlimit="10"/>
<path d="M280.181 133.954C278.723 143.519 277.662 153.188 276.794 162.857C275.056 182.196 274.163 201.597 273.374 221.047C273.27 223.478 273.167 225.902 273.031 228.349C272.896 230.796 272.776 233.131 272.696 235.594C272.537 240.433 272.465 245.287 272.409 250.142C272.319 258.368 272.298 266.605 272.346 274.853H268.647C268.727 266.602 268.838 258.36 269.03 250.142C269.149 245.271 269.285 240.401 269.508 235.523C269.619 233.131 269.771 230.612 269.938 228.213C270.106 225.814 270.233 223.375 270.369 220.951C271.405 201.542 272.561 182.092 274.546 162.714C275.542 153.029 276.73 143.352 278.324 133.731C279.918 124.11 281.935 114.6 284.135 105.098C288.575 86.1428 293.7 67.3707 299.344 48.75L300.069 48.9652C294.681 67.6337 289.795 86.4298 285.61 105.433C283.537 114.847 281.648 124.373 280.181 133.954Z" fill="#92E3A9" stroke="#263238" stroke-miterlimit="10"/>
<path d="M245.77 163.902C248.399 158.005 250.181 151.765 251.062 145.369C252.162 135.803 242.254 122.803 235.12 116.569C227.986 110.336 212.004 100.969 206.862 99.5027C201.721 98.036 194.021 95.1026 192.371 95.1026C190.721 95.1026 192.554 94.9193 190.721 95.1026C188.887 95.286 184.296 93.8113 183.379 94.736C182.462 95.6606 180.262 98.9527 183.379 105.896C186.496 112.839 191.829 118.745 193.479 120.786C195.129 122.826 194.945 124.269 194.945 124.269C194.945 124.269 194.029 124.819 195.679 126.836C197.329 128.853 198.245 130.327 201.553 134.361C204.861 138.394 208.154 139.143 208.154 139.143L207.604 141.71L211.645 146.844C213.662 149.418 221.553 164.093 226.687 166.66C231.82 169.227 243.203 171.06 245.77 163.902Z" fill="#92E3A9" stroke="#263238" stroke-miterlimit="10"/>
<path d="M192.012 97.1196C192.012 97.1196 193.662 103.17 193.845 104.82" stroke="#263238" stroke-miterlimit="10"/>
<path d="M202.096 105.991C202.353 106.852 202.48 107.747 202.47 108.645" stroke="#263238" stroke-miterlimit="10"/>
<path d="M198.795 98.2195C199.754 99.9872 200.601 101.814 201.33 103.688" stroke="#263238" stroke-miterlimit="10"/>
<path d="M205.587 100.969C205.587 100.969 208.52 111.061 208.703 114.177" stroke="#263238" stroke-miterlimit="10"/>
<path d="M214.443 108.383C215.447 111.404 216.412 115.118 216.228 117.876" stroke="#263238" stroke-miterlimit="10"/>
<path d="M212.378 102.986C212.378 102.986 212.952 104.261 213.662 106.174" stroke="#263238" stroke-miterlimit="10"/>
<path d="M223.402 120.897C223.603 122.504 223.603 124.129 223.402 125.735" stroke="#263238" stroke-miterlimit="10"/>
<path d="M221.003 109.594C221.993 112.889 222.744 116.251 223.251 119.654" stroke="#263238" stroke-miterlimit="10"/>
<path d="M228.743 126.636C228.738 128 228.591 129.36 228.305 130.694" stroke="#263238" stroke-miterlimit="10"/>
<path d="M228.153 117.151C228.489 119.644 228.694 122.153 228.767 124.668" stroke="#263238" stroke-miterlimit="10"/>
<path d="M235.24 131.316C235.093 132.669 234.81 134.005 234.395 135.301" stroke="#263238" stroke-miterlimit="10"/>
<path d="M235.862 120.786C235.862 120.786 235.862 125.465 235.423 129.769" stroke="#263238" stroke-miterlimit="10"/>
<path d="M238.978 138.53C238.721 139.42 238.415 140.296 238.061 141.152" stroke="#263238" stroke-miterlimit="10"/>
<path d="M240.445 129.594C240.353 131.467 240.13 133.332 239.775 135.174" stroke="#263238" stroke-miterlimit="10"/>
<path d="M243.817 144.859C243.282 145.717 242.642 146.504 241.911 147.202" stroke="#263238" stroke-miterlimit="10"/>
<path d="M246.503 136.927C246.298 138.693 245.864 140.424 245.212 142.077" stroke="#263238" stroke-miterlimit="10"/>
<path d="M248.153 149.41C248.153 149.41 245.953 152.894 243.57 154.193" stroke="#263238" stroke-miterlimit="10"/>
<path d="M189.079 112.527C190.744 112.405 192.399 112.16 194.029 111.794" stroke="#263238" stroke-miterlimit="10"/>
<path d="M191.829 116.753C191.829 116.753 197.145 117.303 199.353 116.569" stroke="#263238" stroke-miterlimit="10"/>
<path d="M202.988 122.062C201.124 122.43 199.229 122.617 197.329 122.62" stroke="#263238" stroke-miterlimit="10"/>
<path d="M205.954 121.519L204.583 121.782" stroke="#263238" stroke-miterlimit="10"/>
<path d="M204.574 128.175C203.083 128.471 201.553 128.517 200.047 128.31" stroke="#263238" stroke-miterlimit="10"/>
<path d="M212.195 126.652C212.195 126.652 209.947 127.218 207.341 127.713" stroke="#263238" stroke-miterlimit="10"/>
<path d="M210.098 135.174C208.35 135.437 206.567 135.347 204.853 134.911" stroke="#263238" stroke-miterlimit="10"/>
<path d="M220.262 132.527C217.742 133.499 215.145 134.259 212.498 134.799" stroke="#263238" stroke-miterlimit="10"/>
<path d="M215.949 141.742C214.368 142.245 212.742 142.6 211.095 142.802" stroke="#263238" stroke-miterlimit="10"/>
<path d="M224.853 138.585C224.853 138.585 221.744 139.861 218.261 141.017" stroke="#263238" stroke-miterlimit="10"/>
<path d="M220.11 147.984C218.767 148.235 217.409 148.403 216.045 148.486" stroke="#263238" stroke-miterlimit="10"/>
<path d="M230.17 145.736C230.17 145.736 225.913 146.86 221.752 147.681" stroke="#263238" stroke-miterlimit="10"/>
<path d="M226.95 155.947C225.131 156.45 223.256 156.718 221.37 156.744" stroke="#263238" stroke-miterlimit="10"/>
<path d="M235.495 152.343C233.829 153.315 232.089 154.152 230.29 154.846" stroke="#263238" stroke-miterlimit="10"/>
<path d="M231.071 162.172C230.13 162.387 229.094 162.595 227.97 162.802" stroke="#263238" stroke-miterlimit="10"/>
<path d="M238.612 159.868C237.061 160.523 235.462 161.056 233.829 161.462" stroke="#263238" stroke-miterlimit="10"/>
<path d="M262.764 274.813C262.493 260.194 262.118 245.567 261.409 230.971C261.21 227.058 260.995 223.136 260.684 219.238C260.449 215.37 259.956 211.522 259.209 207.719C257.481 200.103 255.274 192.603 252.601 185.265C249.939 177.899 247.021 170.614 243.649 163.551C241.959 160.02 240.166 156.544 238.213 153.189C236.241 149.835 234.016 146.638 231.557 143.623C226.51 137.625 221.093 131.949 215.336 126.629C209.604 121.264 203.69 116.075 197.6 111.125L198.07 110.527C204.272 115.397 210.266 120.499 216.109 125.792C221.995 131.045 227.546 136.662 232.729 142.611C235.286 145.657 237.609 148.892 239.68 152.288C241.72 155.684 243.593 159.175 245.363 162.714C248.87 169.801 251.939 177.062 254.745 184.476C257.584 191.876 259.946 199.451 261.816 207.154C262.039 208.126 262.222 209.114 262.421 210.095C262.621 211.075 262.724 212.08 262.876 213.076C263.027 214.073 263.107 215.045 263.226 216.033C263.346 217.022 263.45 218.01 263.529 218.991C263.912 222.929 264.191 226.866 264.454 230.796C265.403 245.471 266.048 260.13 266.527 274.813H262.764Z" fill="#92E3A9" stroke="#263238" stroke-miterlimit="10"/>
<path d="M293.015 234.742C291.974 235.035 290.905 235.214 289.826 235.276C284.111 235.46 283.37 229.067 283.609 227.632L290.065 209.234C290.065 209.234 316.825 194.185 330.208 193.467C343.592 192.75 351.946 193.467 350.033 197.046C348.12 200.625 339.543 211.626 325.194 219.748C313.014 226.651 300.125 232.909 293.023 234.742" fill="#92E3A9"/>
<path d="M293.015 234.742C291.974 235.035 290.905 235.214 289.826 235.276C284.111 235.46 283.37 229.067 283.609 227.632L290.065 209.234C290.065 209.234 316.825 194.185 330.208 193.467C343.592 192.75 351.946 193.467 350.033 197.046C348.12 200.625 339.543 211.626 325.194 219.748C313.014 226.651 300.125 232.909 293.023 234.742" stroke="#263238" stroke-miterlimit="10"/>
<path d="M322.803 208.373C321.869 208.128 320.921 207.936 319.965 207.799" stroke="#263238" stroke-miterlimit="10"/>
<path d="M331.396 211.625C329.385 210.651 327.314 209.807 325.194 209.099" stroke="#263238" stroke-miterlimit="10"/>
<path d="M323.991 217.117C323.991 217.117 317.064 213.299 314.912 212.582" stroke="#263238" stroke-miterlimit="10"/>
<path d="M314.099 218.935C311.939 217.571 309.539 216.63 307.028 216.161" stroke="#263238" stroke-miterlimit="10"/>
<path d="M316.346 220.704C315.976 220.328 315.576 219.982 315.151 219.668" stroke="#263238" stroke-miterlimit="10"/>
<path d="M302.596 222.371C303.88 222.91 305.121 223.544 306.311 224.268" stroke="#263238" stroke-miterlimit="10"/>
<path d="M297.949 220.466C297.949 220.466 299.137 220.92 300.651 221.558" stroke="#263238" stroke-miterlimit="10"/>
<path d="M295.853 228.006C296.901 228.247 297.919 228.602 298.89 229.066" stroke="#263238" stroke-miterlimit="10"/>
<path d="M291.979 227.153C291.979 227.153 292.879 227.321 294.059 227.584" stroke="#263238" stroke-miterlimit="10"/>
<path d="M323.752 196.568C323.752 196.568 320.412 202.546 320.412 203.503" stroke="#263238" stroke-miterlimit="10"/>
<path d="M313.182 205.496L313.238 207.321" stroke="#263238" stroke-miterlimit="10"/>
<path d="M312.998 200.155L313.126 203.901" stroke="#263238" stroke-miterlimit="10"/>
<path d="M304.876 204.459L305.115 210.429" stroke="#263238" stroke-miterlimit="10"/>
<path d="M297.71 207.082C297.71 207.082 298.188 212.103 298.427 214.016" stroke="#263238" stroke-miterlimit="10"/>
<path d="M290.783 211.386C291.251 213.66 291.888 215.895 292.688 218.074" stroke="#263238" stroke-miterlimit="10"/>
<path d="M329.531 200.41C329.193 201.258 328.927 202.133 328.734 203.025" stroke="#263238" stroke-miterlimit="10"/>
<path d="M331.635 195.38C331.635 195.38 330.918 196.887 330.192 198.68" stroke="#263238" stroke-miterlimit="10"/>
<path d="M338.092 194.424C338.092 194.424 335.7 200.633 335.222 201.829" stroke="#263238" stroke-miterlimit="10"/>
<path d="M289.324 225.663C286.207 228.915 283.744 232.837 283.035 237.253C282.349 241.76 282.032 246.316 282.086 250.876C282.086 258.847 282.485 266.858 283.13 274.789H279.942C279.591 266.818 279.472 258.807 279.783 250.796C279.903 246.121 280.404 241.464 281.281 236.87C281.544 235.702 281.882 234.552 282.293 233.427C282.742 232.306 283.275 231.222 283.888 230.182C285.105 228.152 286.567 226.278 288.24 224.603C291.597 221.327 295.383 218.522 299.495 216.265C303.551 213.992 307.765 212.015 312.106 210.35C316.426 208.66 320.826 207.162 325.274 205.926C329.722 204.691 334.218 203.535 338.777 202.674L338.921 203.423C334.417 204.348 329.953 205.527 325.545 206.843C321.137 208.158 316.777 209.68 312.528 211.41C308.27 213.118 304.138 215.126 300.165 217.421C296.195 219.665 292.548 222.437 289.324 225.663Z" fill="#92E3A9" stroke="#263238" stroke-miterlimit="10"/>
<path d="M258.284 232.892C258.284 232.892 253.988 219.987 249.683 210.669C245.379 201.35 237.727 193.228 225.77 194.663C213.813 196.097 196.388 207.799 194.682 211.402C192.976 215.005 195.4 216.416 212.841 217.372C230.282 218.329 251.597 227.153 254.936 230.023L258.284 232.892Z" fill="#92E3A9" stroke="#263238" stroke-miterlimit="10"/>
<path d="M231.134 214.224C229.421 215.722 227.5 217.141 225.953 217.595" stroke="#263238" stroke-miterlimit="10"/>
<path d="M235.543 209.855C235.543 209.855 234.251 211.314 232.49 212.988" stroke="#263238" stroke-miterlimit="10"/>
<path d="M240.963 211.402C240.963 211.402 237.711 216.814 236.013 218.058" stroke="#263238" stroke-miterlimit="10"/>
<path d="M244 218.265C243.509 219.195 242.904 220.06 242.198 220.84" stroke="#263238" stroke-miterlimit="10"/>
<path d="M245.913 213.722C245.608 214.693 245.246 215.646 244.829 216.575" stroke="#263238" stroke-miterlimit="10"/>
<path d="M250.712 219.453C250.009 220.806 249.124 222.056 248.081 223.167" stroke="#263238" stroke-miterlimit="10"/>
<path d="M242.382 204.993C240.788 202.53 238.811 199.876 236.627 198.393" stroke="#263238" stroke-miterlimit="10"/>
<path d="M245.482 210.629C245.482 210.629 244.685 208.868 243.394 206.644" stroke="#263238" stroke-miterlimit="10"/>
<path d="M230.927 199.533C233.709 201.781 237.304 204.921 238.332 206.755" stroke="#263238" stroke-miterlimit="10"/>
<path d="M227.492 196.863C227.492 196.863 228.185 197.381 229.222 198.186" stroke="#263238" stroke-miterlimit="10"/>
<path d="M227.874 203.861C228.712 204.352 229.512 204.906 230.265 205.519" stroke="#263238" stroke-miterlimit="10"/>
<path d="M219.6 199.175C219.6 199.175 222.876 200.92 225.842 202.65" stroke="#263238" stroke-miterlimit="10"/>
<path d="M216.428 204.483C217.668 204.968 218.881 205.519 220.062 206.133" stroke="#263238" stroke-miterlimit="10"/>
<path d="M210.314 202.116C210.314 202.116 212.458 202.913 214.794 203.83" stroke="#263238" stroke-miterlimit="10"/>
<path d="M223.164 213.275C222.373 214.183 221.491 215.009 220.533 215.738" stroke="#263238" stroke-miterlimit="10"/>
<path d="M225.945 210.007C225.945 210.007 225.148 210.964 224.191 212.112" stroke="#263238" stroke-miterlimit="10"/>
<path d="M215.423 211.864C214.66 212.798 213.831 213.677 212.944 214.495" stroke="#263238" stroke-miterlimit="10"/>
<path d="M204.742 204.586L212.482 208.46" stroke="#263238" stroke-miterlimit="10"/>
<path d="M258.754 274.813C258.667 264.705 258.539 254.582 258.181 244.522C258.077 241.923 257.973 239.309 257.75 236.742C257.75 236.089 257.615 235.491 257.543 234.861C257.438 234.249 257.302 233.642 257.136 233.044C256.804 231.817 256.391 230.613 255.901 229.441C253.828 224.721 251.431 220.15 248.727 215.762C247.328 214.293 245.716 213.043 243.944 212.055C242.131 211.039 240.19 210.27 238.173 209.768C234.187 208.708 229.867 209.082 225.626 209.401C221.386 209.72 217.153 210.326 212.92 210.931L206.543 211.848L203.355 212.295C202.821 212.358 202.295 212.43 201.761 212.478L200.963 212.558H200.118V211.76H200.876L201.673 211.673C202.199 211.617 202.725 211.529 203.267 211.458L206.456 210.971L212.793 209.959C217.017 209.289 221.258 208.668 225.547 208.229C227.683 207.998 229.827 207.863 231.995 207.791C234.187 207.727 236.379 207.944 238.516 208.436C240.662 208.938 242.731 209.724 244.669 210.772C246.636 211.82 248.429 213.164 249.986 214.758V214.798L250.034 214.877C252.857 219.32 255.366 223.955 257.543 228.747C258.077 229.979 258.532 231.244 258.906 232.533C259.113 233.179 259.241 233.865 259.384 234.534C259.528 235.204 259.591 235.889 259.639 236.543C259.902 239.181 260.046 241.796 260.189 244.41C260.699 254.55 260.986 264.681 261.218 274.82L258.754 274.813Z" fill="#92E3A9" stroke="#263238" stroke-miterlimit="10"/>
<path d="M306.55 272.844C306.55 272.844 304.493 270.412 303.744 270.221C302.995 270.03 300.181 270.97 299.814 271.72C299.577 272.252 299.45 272.827 299.439 273.41L306.55 272.844Z" fill="white" stroke="#263238" stroke-miterlimit="10"/>
<path d="M295.876 272.844C295.876 272.844 293.82 270.412 293.07 270.221C292.321 270.03 289.515 270.97 289.141 271.72C288.904 272.252 288.776 272.827 288.766 273.41L295.876 272.844Z" fill="white" stroke="#263238" stroke-miterlimit="10"/>
<path d="M288.208 272.095C288.208 272.095 286.144 269.663 285.394 269.472C284.645 269.281 281.839 270.221 281.465 270.971C281.228 271.503 281.1 272.078 281.09 272.661L288.208 272.095Z" fill="white" stroke="#263238" stroke-miterlimit="10"/>
<path d="M252.824 272.661C252.824 272.661 250.768 270.222 250.018 270.038C249.269 269.855 246.463 270.788 246.089 271.537C245.852 272.067 245.725 272.639 245.714 273.219L252.824 272.661Z" fill="white" stroke="#263238" stroke-miterlimit="10"/>
<path d="M242.9 272.661C242.9 272.661 240.843 270.222 240.094 270.038C239.345 269.855 236.539 270.788 236.164 271.537C235.928 272.067 235.8 272.639 235.79 273.219L242.9 272.661Z" fill="white" stroke="#263238" stroke-miterlimit="10"/>
<path d="M239.536 272.661C239.536 272.661 241.593 270.222 242.342 270.038C243.091 269.855 245.897 270.788 246.272 271.537C246.508 272.067 246.636 272.639 246.647 273.219L239.536 272.661Z" fill="white" stroke="#263238" stroke-miterlimit="10"/>
<path d="M273.605 273.218C273.605 273.218 275.662 270.787 276.411 270.596C277.16 270.405 279.966 271.345 280.341 272.095C280.578 272.627 280.705 273.202 280.715 273.784L273.605 273.218Z" fill="white" stroke="#263238" stroke-miterlimit="10"/>
<path d="M265.929 273.218C265.929 273.218 267.985 270.787 268.735 270.596C269.484 270.405 272.29 271.345 272.664 272.095C272.901 272.627 273.029 273.202 273.039 273.784L265.929 273.218Z" fill="white" stroke="#263238" stroke-miterlimit="10"/>
<path d="M251.86 273.218C251.86 273.218 253.916 270.787 254.665 270.596C255.415 270.405 258.221 271.345 258.595 272.095C258.832 272.627 258.96 273.202 258.97 273.784L251.86 273.218Z" fill="white" stroke="#263238" stroke-miterlimit="10"/>
<path d="M292.138 272.844C292.138 272.844 294.194 270.412 294.944 270.221C295.693 270.03 298.499 270.97 298.873 271.72C299.11 272.252 299.238 272.827 299.248 273.41L292.138 272.844Z" fill="white" stroke="#263238" stroke-miterlimit="10"/>
<path d="M264.805 272.844C264.805 272.844 262.748 270.412 261.999 270.221C261.25 270.03 258.444 270.97 258.069 271.72C257.832 272.252 257.705 272.827 257.694 273.41L264.805 272.844Z" fill="white" stroke="#263238" stroke-miterlimit="10"/>
<path d="M285.211 272.844C285.211 272.844 287.267 270.412 288.017 270.221C288.766 270.03 291.572 270.97 291.947 271.72C292.184 272.252 292.311 272.827 292.321 273.41L285.211 272.844Z" fill="white" stroke="#263238" stroke-miterlimit="10"/>
<path d="M278.093 273.386C278.093 273.386 280.157 270.946 280.907 270.763C281.656 270.58 284.462 271.512 284.836 272.262C285.073 272.791 285.2 273.364 285.211 273.944L278.093 273.386Z" fill="white" stroke="#263238" stroke-miterlimit="10"/>
<path d="M233.303 272.589H309.356C309.356 272.589 311.643 295.45 308.455 312.732C305.266 330.013 295.462 341.141 292.226 345.063C288.989 348.985 286.207 352.309 283.457 355.099H259.257C256.483 352.309 253.677 348.961 250.489 345.063C247.3 341.165 237.519 330.013 234.283 312.732C231.047 295.45 233.303 272.589 233.303 272.589Z" fill="white" stroke="#263238" stroke-miterlimit="10"/>
</svg>
