<svg width="269" height="545" viewBox="0 0 269 545" fill="none" xmlns="http://www.w3.org/2000/svg">
<path d="M-0.415836 272.476L232.298 274.483L-2.43637 39.6038L-0.415836 272.476Z" fill="#513C64"/>
<g filter="url(#filter0_d_570_6352)">
<path d="M231.244 247.967L231.133 276.349L111.8 157.016L-7.53319 37.6824C-7.53319 37.6824 0.364521 31.2834 20.9243 37.4213C41.4842 43.5592 40.3314 53.0492 60.8306 74.5791C77.2892 91.8653 120.938 66.5296 131.831 110.815C142.725 155.1 143.741 164.983 175.336 171.016C206.931 177.05 187.45 218.332 209.406 218.13C231.361 217.929 231.244 247.967 231.244 247.967Z" fill="#513C64"/>
</g>
<path d="M-1 61.5331C-1 61.5331 11.7222 64.3076 19.0564 70.0331C31.1892 79.5046 38.4675 103.928 42.1632 110.268C49.0564 122.093 73.1824 103.585 92.3848 122.608C111.587 141.631 111.89 158.957 124.389 182.248C136.887 205.539 153.592 187.1 165.748 200.243C176.395 211.754 174.919 223.324 181.504 237.775C184.163 243.61 195.131 243.664 201.423 250.533C210.636 260.591 211 273.533 211 273.533" stroke="#EEC1BB" stroke-width="2"/>
<path d="M153.5 272.533C146.643 257.85 151.939 256.131 140.852 244.436C128.194 231.083 110.8 249.817 97.7852 226.152C84.7708 202.488 84.455 184.884 64.4598 165.555C44.4645 146.227 19.3423 165.033 12.1645 153.018C8.31629 146.576 8.63377 129.657 -4 120.033" stroke="#EEC1BB" stroke-width="2"/>
<path d="M0 197.033C7.24016 207.537 -1.774 188.343 18.395 205.24C38.5641 222.137 38.8826 237.526 52.0101 258.213C65.1375 278.901 82.6831 262.524 95.451 274.197" stroke="#EEC1BB" stroke-width="2"/>
<path d="M-0.415836 271.855L232.298 269.847L-2.43637 504.727L-0.415836 271.855Z" fill="#513C64"/>
<g filter="url(#filter1_d_570_6352)">
<path d="M231.244 296.364L231.133 267.982L111.8 387.315L-7.53319 506.648C-7.53319 506.648 0.364521 513.047 20.9243 506.909C41.4842 500.771 40.3314 491.281 60.8306 469.751C77.2892 452.465 120.938 477.801 131.831 433.516C142.725 389.23 143.741 379.348 175.336 373.314C206.931 367.281 187.45 325.999 209.406 326.2C231.361 326.402 231.244 296.364 231.244 296.364Z" fill="#513C64"/>
</g>
<path d="M-1 482.797C-1 482.797 11.7222 480.023 19.0564 474.297C31.1892 464.826 38.4675 440.402 42.1632 434.062C49.0564 422.237 73.1824 440.746 92.3848 421.723C111.587 402.7 111.89 385.374 124.389 362.083C136.887 338.792 153.592 357.23 165.748 344.088C176.395 332.577 174.919 321.007 181.504 306.556C184.163 300.72 195.131 300.666 201.423 293.797C210.636 283.739 211 270.797 211 270.797" stroke="#EEC1BB" stroke-width="2"/>
<path d="M153.5 271.797C146.643 286.48 151.939 288.199 140.852 299.895C128.194 313.248 110.8 294.514 97.7852 318.178C84.7708 341.843 84.455 359.447 64.4598 378.775C44.4645 398.103 19.3423 379.297 12.1645 391.312C8.31629 397.754 8.63377 414.674 -4 424.297" stroke="#EEC1BB" stroke-width="2"/>
<path d="M0 347.297C7.24016 336.794 -1.774 355.987 18.395 339.091C38.5641 322.194 38.8826 306.805 52.0101 286.117C65.1375 265.43 82.6831 281.807 95.451 270.134" stroke="#EEC1BB" stroke-width="2"/>
<defs>
<filter id="filter0_d_570_6352" x="-7.5332" y="32.7594" width="245.777" height="245.589" filterUnits="userSpaceOnUse" color-interpolation-filters="sRGB">
<feFlood flood-opacity="0" result="BackgroundImageFix"/>
<feColorMatrix in="SourceAlpha" type="matrix" values="0 0 0 0 0 0 0 0 0 0 0 0 0 0 0 0 0 0 127 0" result="hardAlpha"/>
<feOffset dx="5"/>
<feGaussianBlur stdDeviation="1"/>
<feComposite in2="hardAlpha" operator="out"/>
<feColorMatrix type="matrix" values="0 0 0 0 0.443137 0 0 0 0 0.901961 0 0 0 0 0.466667 0 0 0 0.48 0"/>
<feBlend mode="normal" in2="BackgroundImageFix" result="effect1_dropShadow_570_6352"/>
<feBlend mode="normal" in="SourceGraphic" in2="effect1_dropShadow_570_6352" result="shape"/>
</filter>
<filter id="filter1_d_570_6352" x="-7.5332" y="265.982" width="245.777" height="245.589" filterUnits="userSpaceOnUse" color-interpolation-filters="sRGB">
<feFlood flood-opacity="0" result="BackgroundImageFix"/>
<feColorMatrix in="SourceAlpha" type="matrix" values="0 0 0 0 0 0 0 0 0 0 0 0 0 0 0 0 0 0 127 0" result="hardAlpha"/>
<feOffset dx="5"/>
<feGaussianBlur stdDeviation="1"/>
<feComposite in2="hardAlpha" operator="out"/>
<feColorMatrix type="matrix" values="0 0 0 0 0.443137 0 0 0 0 0.901961 0 0 0 0 0.466667 0 0 0 0.48 0"/>
<feBlend mode="normal" in2="BackgroundImageFix" result="effect1_dropShadow_570_6352"/>
<feBlend mode="normal" in="SourceGraphic" in2="effect1_dropShadow_570_6352" result="shape"/>
</filter>
</defs>
</svg>
