<svg width="101" height="222" viewBox="0 0 101 222" fill="none" xmlns="http://www.w3.org/2000/svg">
<path d="M15.9895 7.31841C19.4938 3.02562 25.0014 0.736137 30.5032 0.0878384C32.8394 -0.186666 34.2995 0.216327 36.5481 0.823742C38.8034 1.36092 40.7958 2.67886 42.1726 4.54416C43.767 6.80445 45.0928 9.33924 45.4082 12.096C45.8067 14.9138 45.9435 17.7625 45.8171 20.6056C45.6872 23.4625 44.7695 26.2278 43.1655 28.5955L35.9466 29.8278C31.9633 29.9621 27.9217 30.0965 24.0377 29.1854C20.1538 28.2742 16.3808 26.1892 14.3016 22.7608C11.4163 18.0825 12.4852 11.6054 15.9895 7.31841Z" fill="#263238"/>
<path d="M40.7709 32.7949C40.7709 32.7949 40.8877 32.9701 41.2031 33.1745C41.6548 33.4487 42.1612 33.6202 42.6866 33.6768C43.4817 33.7637 44.284 33.6004 44.9819 33.2096C45.8286 32.6962 46.4454 31.8766 46.7042 30.9208C46.963 29.965 46.844 28.9462 46.3719 28.0757C45.9647 27.386 45.3521 26.8408 44.6198 26.5163C44.1378 26.2975 43.6129 26.1897 43.0837 26.2009C42.8826 26.1853 42.681 26.2236 42.4997 26.3119C43.18 26.3466 43.8477 26.509 44.4679 26.7908C45.1125 27.1239 45.6462 27.6373 46.004 28.2685C46.4032 29.0535 46.497 29.9587 46.2672 30.8089C46.0374 31.6591 45.5003 32.3938 44.7599 32.8708C44.1332 33.2331 43.4155 33.4075 42.6924 33.3731C42.0215 33.3016 41.3698 33.1055 40.7709 32.7949Z" fill="#FF725E"/>
<path d="M9.12689 27.4156C9.19315 26.5926 9.44778 25.7958 9.8711 25.0869C10.2944 24.378 10.8751 23.7759 11.5682 23.3272C12.2711 22.9014 13.091 22.7098 13.9098 22.7801C14.7286 22.8504 15.5039 23.1791 16.1238 23.7186L17.2627 25.0736C18.1361 25.4814 18.862 26.1493 19.3409 26.9858C19.8198 27.8222 20.0282 28.7864 19.9377 29.746C19.8065 30.7068 19.4038 31.6102 18.7768 32.3499C18.1498 33.0897 17.3247 33.6351 16.3984 33.922C15.4653 34.1841 14.4805 34.202 13.5385 33.974C12.5965 33.7459 11.729 33.2795 11.0192 32.6195C10.3298 31.9524 9.8012 31.1372 9.47335 30.2356C9.14551 29.3341 9.02703 28.3697 9.12689 27.4156Z" fill="#263238"/>
<path d="M10.5577 32.2811C10.2807 31.8549 10.1457 31.3519 10.1722 30.8443C10.2306 29.9215 10.9023 28.7125 11.8192 27.6028C12.6238 26.6455 13.6054 25.8523 14.7103 25.2666C15.5572 24.8111 16.1412 24.6475 16.1237 24.5891C15.5924 24.6354 15.076 24.7884 14.6052 25.0388C13.4257 25.5804 12.3821 26.3786 11.5506 27.375C11.089 27.9076 10.6965 28.4963 10.3825 29.1272C10.1032 29.6478 9.94547 30.2249 9.92105 30.8151C9.90653 31.2281 10.0186 31.6357 10.2423 31.9832C10.4 32.2168 10.546 32.2986 10.5577 32.2811Z" fill="#455A64"/>
<path d="M14.0502 34.4126C14.167 34.4126 13.6764 32.2224 14.3714 29.6467C15.0665 27.0711 16.5266 25.4007 16.4273 25.3364C16.042 25.6275 15.7167 25.9904 15.4695 26.4052C14.81 27.3653 14.3219 28.4324 14.0269 29.5591C13.7306 30.6842 13.6337 31.8524 13.7407 33.0109C13.7543 33.4935 13.8594 33.9691 14.0502 34.4126Z" fill="#455A64"/>
<path d="M35.9465 41.5613C35.8998 39.0265 35.8414 36.9531 35.8414 36.9648C35.8414 36.9765 41.7286 36.3165 43.3523 28.7881C44.1583 25.0385 44.3101 18.8241 44.2692 13.737C44.2342 9.15221 40.3327 2.91453 34.6791 2.89701L32.1618 2.60498L22.5425 6.43053C21.8724 6.46384 21.2393 6.74771 20.7688 7.22586C20.2982 7.70402 20.0244 8.34154 20.0018 9.01204L19.9668 41.719L29.5745 65.6652L35.6837 54.7492L35.9465 41.5613Z" fill="#A8605D"/>
<path d="M32.0391 27.0127C32.0817 26.7389 32.1928 26.4804 32.3623 26.2611C32.5317 26.0419 32.7539 25.8691 33.0081 25.7589C33.2623 25.6487 33.5403 25.6047 33.8162 25.6309C34.092 25.6571 34.3567 25.7527 34.5856 25.9089C34.8953 26.1474 35.1359 26.4642 35.2827 26.8265C35.4295 27.1888 35.4771 27.5837 35.4208 27.9706C35.2551 28.2027 35.0417 28.3968 34.7949 28.5398C34.5481 28.6828 34.2737 28.7715 33.9899 28.7999C33.9004 28.8058 33.8107 28.8058 33.7212 28.7999C33.2717 28.8013 32.8389 28.6298 32.5122 28.321C32.3389 28.1534 32.2062 27.9484 32.1242 27.7216C32.0422 27.4949 32.0131 27.2524 32.0391 27.0127Z" fill="#844949"/>
<path d="M42.0499 19.6596C42.0392 19.9142 41.9294 20.1545 41.7438 20.3292C41.5583 20.5038 41.3117 20.5989 41.057 20.5941C40.9323 20.5972 40.8083 20.5754 40.6922 20.5298C40.5761 20.4842 40.4703 20.4159 40.381 20.3288C40.2918 20.2417 40.2208 20.1377 40.1724 20.0227C40.124 19.9078 40.0991 19.7843 40.0991 19.6596C40.1098 19.405 40.2196 19.1647 40.4052 18.9901C40.5907 18.8154 40.8372 18.7203 41.092 18.7251C41.2167 18.722 41.3407 18.7439 41.4568 18.7895C41.5729 18.835 41.6787 18.9034 41.7679 18.9905C41.8572 19.0775 41.9281 19.1816 41.9766 19.2965C42.025 19.4115 42.0499 19.5349 42.0499 19.6596Z" fill="#263238"/>
<path d="M42.3945 16.5464C42.2719 16.669 41.5593 16.0791 40.508 16.0265C39.4567 15.974 38.6624 16.4529 38.5573 16.3186C38.4522 16.1842 38.6391 16.0382 38.9837 15.8104C39.4556 15.5186 40.007 15.3817 40.5606 15.4191C41.1081 15.4512 41.6315 15.6556 42.0558 16.0032C42.3653 16.2602 42.4588 16.4938 42.3945 16.5464Z" fill="#263238"/>
<path d="M35.8005 24.5014C36.3639 24.3599 36.9425 24.2874 37.5234 24.2853C37.7921 24.2853 38.0491 24.2327 38.1075 24.0575C38.1463 23.7814 38.0994 23.5001 37.9732 23.2515C37.759 22.5857 37.5312 21.8907 37.2898 21.1664C36.3495 18.1994 35.6837 15.7639 35.8063 15.7289C35.929 15.6939 36.7875 18.0651 37.7278 21.0321L38.3703 23.1288C38.5247 23.4597 38.5538 23.8353 38.4521 24.186C38.409 24.2789 38.3449 24.3605 38.2648 24.4244C38.1847 24.4883 38.0909 24.5326 37.9907 24.5539C37.8415 24.5888 37.6881 24.6025 37.5351 24.5948C36.9553 24.6378 36.3723 24.6064 35.8005 24.5014Z" fill="#263238"/>
<path d="M35.8414 36.965C32.2557 36.8246 28.7797 35.6902 25.8015 33.6885C25.8015 33.6885 28.2253 39.1143 35.8823 38.8165L35.8414 36.965Z" fill="#844949"/>
<path d="M32.67 25.056C32.8394 25.056 32.7809 26.2241 33.7096 27.0593C34.6382 27.8945 35.8589 27.8653 35.8648 28.023C35.8648 28.0931 35.5786 28.2274 35.0646 28.2157C34.3963 28.1881 33.7592 27.9254 33.2657 27.474C32.792 27.0424 32.505 26.4432 32.4656 25.8036C32.448 25.3247 32.5941 25.0502 32.67 25.056Z" fill="#263238"/>
<path d="M42.1434 12.7734C41.9448 13.0012 41.2323 12.715 40.3912 12.6566C39.5502 12.5982 38.7734 12.7267 38.6391 12.4697C38.5748 12.3412 38.7033 12.1076 39.0362 11.8857C39.4843 11.64 39.995 11.5322 40.5042 11.5759C41.0134 11.6195 41.4983 11.8126 41.8981 12.131C42.1434 12.4113 42.231 12.6625 42.1434 12.7734Z" fill="#263238"/>
<path d="M30.509 19.1572C30.5026 19.412 30.5962 19.6591 30.7697 19.8458C30.9433 20.0324 31.183 20.1438 31.4376 20.1559C31.5613 20.1679 31.6862 20.1551 31.8049 20.1183C31.9237 20.0814 32.0338 20.0213 32.129 19.9413C32.2242 19.8614 32.3025 19.7632 32.3593 19.6526C32.416 19.5421 32.4502 19.4213 32.4597 19.2973C32.4662 19.0419 32.3727 18.7941 32.1993 18.6065C32.0259 18.4189 31.7862 18.3064 31.5311 18.2927C31.4067 18.2799 31.2811 18.2923 31.1617 18.3292C31.0422 18.3661 30.9315 18.4267 30.8361 18.5074C30.7406 18.5881 30.6625 18.6873 30.6063 18.7989C30.5501 18.9106 30.517 19.0324 30.509 19.1572Z" fill="#263238"/>
<path d="M28.0091 16.1727C28.1259 16.3012 28.8794 15.7639 29.9307 15.7873C30.982 15.8106 31.7412 16.3713 31.8581 16.2195C31.9749 16.0676 31.7938 15.9333 31.4609 15.6821C31.0141 15.3572 30.4772 15.1796 29.9248 15.174C29.3764 15.1641 28.8388 15.3277 28.3888 15.6412C28.0617 15.8865 27.9507 16.1143 28.0091 16.1727Z" fill="#263238"/>
<path d="M28.7627 14.0584C28.9437 14.3037 29.6738 14.0584 30.544 14.0584C31.4143 14.0584 32.1502 14.2453 32.2962 14C32.378 13.8773 32.2611 13.6378 31.9458 13.4159C31.5186 13.1335 31.0151 12.9888 30.5031 13.0012C29.9945 13.0097 29.5009 13.1749 29.0897 13.4743C28.786 13.7196 28.6809 13.9649 28.7627 14.0584Z" fill="#263238"/>
<path d="M19.9902 19.747L21.3043 21.1137C26.993 15.6645 38.1134 2.03271 37.4943 2.84455C34.901 1.87374 32.1054 1.57047 29.3643 1.96263C25.1357 2.68101 17.0991 4.79528 17.2335 9.78894C17.3678 14.7826 19.9902 19.747 19.9902 19.747Z" fill="#263238"/>
<path d="M16.1821 24.0575C16.2252 23.658 16.2428 23.2561 16.2347 22.8543C16.2822 21.7651 16.4268 20.6822 16.6669 19.6187C17.5076 16.109 19.1916 12.8573 21.5729 10.1453C23.9792 7.45704 26.7843 5.15433 29.8898 3.31777C31.0579 2.59354 32.0508 2.05038 32.7283 1.67658C33.0907 1.5079 33.4401 1.31269 33.7738 1.09253C33.6712 1.11094 33.5725 1.14648 33.4817 1.19766C33.2948 1.28527 33.0145 1.40207 32.6641 1.57729C31.9632 1.9102 30.9645 2.43001 29.7438 3.12503C26.57 4.91535 23.7127 7.21616 21.2867 9.93509C18.8656 12.6863 17.1852 16.0089 16.404 19.5895C16.1837 20.6696 16.0741 21.7695 16.077 22.8719C16.077 23.2632 16.112 23.5669 16.1237 23.7713C16.1311 23.8688 16.1507 23.9649 16.1821 24.0575Z" fill="#455A64"/>
<path d="M30.509 0.765381C30.4033 0.78272 30.3008 0.816211 30.2053 0.864673C30.0126 0.93476 29.7264 1.05741 29.3701 1.22094C28.6459 1.54217 27.6179 2.03862 26.3797 2.7278C24.932 3.53543 23.5301 4.42261 22.1804 5.38524C20.4993 6.53948 18.9603 7.88825 17.5956 9.40352C16.8918 10.2086 16.3022 11.1067 15.8434 12.0726C15.4319 12.9758 15.145 13.9307 14.9907 14.9111C14.7495 16.563 14.7495 18.2412 14.9907 19.8931C15.1442 20.9993 15.3547 22.0969 15.6215 23.1813C15.7091 23.5668 15.7909 23.8588 15.8434 24.0632C15.8634 24.1672 15.8988 24.2677 15.9486 24.3611C15.9139 23.954 15.8495 23.5499 15.7558 23.1521C15.6156 22.3753 15.3995 21.254 15.2418 19.8581C15.035 18.2318 15.0547 16.5846 15.3003 14.9637C15.4586 14.0149 15.7434 13.0917 16.1471 12.2187C16.5895 11.2834 17.1573 10.413 17.835 9.6313C19.1791 8.13773 20.69 6.80322 22.3381 5.6539C23.6799 4.68671 25.0698 3.78807 26.5024 2.96142C27.7172 2.24888 28.7276 1.72323 29.4227 1.36112C29.7965 1.18463 30.1592 0.985682 30.509 0.765381Z" fill="#455A64"/>
<path d="M19.8851 19.899C20.1307 19.7002 20.3575 19.4793 20.5626 19.239L22.3148 17.3642C23.7808 15.7756 25.7841 13.5562 27.9859 11.0973C30.1878 8.63843 32.1619 6.38983 33.5812 4.75448L35.2457 2.80374C35.4641 2.57402 35.6597 2.32365 35.8298 2.05615C35.5841 2.25064 35.359 2.46984 35.1581 2.71029L33.406 4.5851C31.94 6.17957 29.9016 8.39313 27.7348 10.8578C25.568 13.3225 23.553 15.5653 22.1396 17.2006L20.475 19.1514C20.2539 19.3802 20.0563 19.6307 19.8851 19.899Z" fill="#455A64"/>
<path d="M21.1116 21.9431C21.1116 21.359 20.5276 20.004 20.0078 19.8814C18.5243 19.566 15.826 19.5426 15.5923 23.3331C15.2711 28.5195 20.5451 27.7719 20.5626 27.6201C20.5802 27.4682 21.0065 23.8997 21.1116 21.9431Z" fill="#A8605D"/>
<path d="M19.4411 25.4882C19.4411 25.4882 19.3477 25.5407 19.19 25.605C18.9744 25.6911 18.7339 25.6911 18.5183 25.605C17.981 25.3713 17.5722 24.4719 17.6072 23.5374C17.619 23.0912 17.7329 22.6537 17.9401 22.2583C17.9974 22.0996 18.093 21.9574 18.2182 21.8444C18.3435 21.7313 18.4947 21.6508 18.6585 21.61C18.7635 21.5894 18.8724 21.6053 18.967 21.6553C19.0616 21.7053 19.1362 21.7862 19.1783 21.8845C19.2367 22.0364 19.1783 22.1357 19.225 22.1474C19.2718 22.159 19.3418 22.0714 19.3126 21.8495C19.291 21.7215 19.2273 21.6044 19.1316 21.5166C19.064 21.4575 18.9852 21.4126 18.8999 21.3846C18.8147 21.3565 18.7246 21.3458 18.6351 21.3531C18.4196 21.3824 18.2151 21.4666 18.0413 21.5975C17.8675 21.7283 17.7301 21.9016 17.6422 22.1006C17.3966 22.5366 17.2603 23.0256 17.2451 23.5257C17.21 24.5712 17.689 25.5816 18.4132 25.8619C18.5502 25.9101 18.6962 25.9272 18.8406 25.912C18.9851 25.8969 19.1243 25.8498 19.2484 25.7743C19.4236 25.6108 19.4586 25.494 19.4411 25.4882Z" fill="#844949"/>
<path d="M20.1128 33.2329C20.1128 33.2329 19.9901 33.414 19.6806 33.6126C19.2272 33.8875 18.7186 34.0591 18.1913 34.1149C17.3962 34.2006 16.5942 34.0373 15.8959 33.6476C15.048 33.1353 14.4306 32.3153 14.1727 31.3587C13.9148 30.4022 14.0362 29.383 14.5117 28.5138C14.919 27.8241 15.5316 27.2789 16.2639 26.9544C16.7458 26.7355 17.2708 26.6277 17.7999 26.639C18.1737 26.639 18.384 26.7266 18.384 26.75C17.7037 26.7846 17.0359 26.9471 16.4157 27.2289C15.7729 27.5623 15.2412 28.0758 14.8855 28.7065C14.4737 29.4877 14.3776 30.3971 14.6169 31.2472C14.8434 32.1004 15.3836 32.8367 16.1296 33.3089C16.7553 33.6737 17.4738 33.8482 18.1971 33.8112C18.8658 33.7377 19.5151 33.5417 20.1128 33.2329Z" fill="#FF725E"/>
<path d="M49.292 186.424L47.4814 170.737L32.9385 174.807L36.6063 189.853L49.292 186.424Z" fill="#A8605D"/>
<path d="M49.4556 186.354L51.9145 204.641L58.0295 218.541C58.1329 218.778 58.1867 219.034 58.1877 219.293C58.1886 219.552 58.1366 219.808 58.0348 220.046C57.9331 220.284 57.7837 220.499 57.596 220.677C57.4083 220.855 57.1861 220.993 56.9432 221.082C56.6595 221.183 56.3557 221.216 56.057 221.176C55.7584 221.136 55.4735 221.026 55.2261 220.854C52.0254 218.629 40.286 210.376 40.1808 209.027C40.0582 207.462 36.3027 189.911 36.3027 189.911L49.4556 186.354Z" fill="#FF725E"/>
<g opacity="0.6">
<path d="M56.9433 221.105L40.0057 207.818L40.1284 208.589C40.2271 209.252 40.5583 209.859 41.0629 210.3C42.4354 211.468 46.2901 214.646 55.1678 220.883C55.4207 221.058 55.7121 221.169 56.0173 221.207C56.3224 221.244 56.6321 221.208 56.9199 221.099L56.9433 221.105Z" fill="white"/>
</g>
<g opacity="0.6">
<path d="M42.7974 201.352C43.0437 201.485 43.234 201.702 43.3337 201.964C43.4333 202.226 43.4358 202.514 43.3406 202.777C43.2197 203.032 43.0059 203.231 42.7431 203.333C42.4802 203.435 42.1883 203.433 41.9272 203.326C41.6606 203.19 41.4536 202.961 41.3458 202.682C41.238 202.403 41.2371 202.094 41.3431 201.814C41.5002 201.566 41.7448 201.386 42.0284 201.31C42.3119 201.235 42.6136 201.268 42.8733 201.405" fill="white"/>
</g>
<path d="M51.5174 213.805C51.6284 213.84 51.8912 212.818 52.8958 212.134C53.9003 211.451 54.9224 211.515 54.9283 211.404C54.9341 211.293 54.683 211.246 54.2449 211.258C53.6751 211.278 53.1241 211.467 52.6621 211.801C52.1922 212.129 51.8271 212.585 51.6108 213.115C51.459 213.518 51.4707 213.805 51.5174 213.805Z" fill="#263238"/>
<path d="M53.1994 216.036C53.2987 216.1 53.7834 215.417 54.6945 214.996C55.6057 214.575 56.4467 214.605 56.4467 214.482C56.4467 214.359 55.5473 214.137 54.531 214.628C53.5148 215.119 53.1001 216.001 53.1994 216.036Z" fill="#263238"/>
<path d="M48.6087 211.054C48.708 211.124 49.4556 210.067 50.7989 209.302C52.1422 208.537 53.4213 208.367 53.4037 208.245C53.3862 208.122 52.0254 208.104 50.5945 208.951C49.1635 209.798 48.5152 211.013 48.6087 211.054Z" fill="#263238"/>
<path d="M47.3938 205.558C47.4639 205.657 48.4043 205.079 49.7301 204.822C51.0559 204.565 52.1188 204.722 52.1422 204.6C52.1656 204.477 51.0442 204.138 49.6483 204.425C48.2524 204.711 47.3238 205.482 47.3938 205.558Z" fill="#263238"/>
<path d="M46.5412 200.208C46.6113 200.301 47.5283 199.536 48.9242 199.379C50.3201 199.221 51.3889 199.717 51.4356 199.606C51.4823 199.495 51.2253 199.367 50.7639 199.192C50.1596 198.969 49.5101 198.897 48.8716 198.981C48.2342 199.058 47.624 199.285 47.0903 199.641C46.6873 199.922 46.5062 200.173 46.5412 200.208Z" fill="#263238"/>
<path d="M48.7314 198.368C48.7533 198.132 48.7234 197.895 48.6438 197.673C48.4828 197.051 48.201 196.468 47.8145 195.956C47.5629 195.554 47.1848 195.248 46.7398 195.085C46.5894 195.045 46.4303 195.052 46.2841 195.106C46.1378 195.159 46.0115 195.256 45.9221 195.383C45.7648 195.644 45.7086 195.954 45.7644 196.254C45.9025 196.86 46.2474 197.399 46.7399 197.778C47.2323 198.158 47.8415 198.354 48.4628 198.333C49.0756 198.297 49.6641 198.081 50.1538 197.711C50.6435 197.341 51.0124 196.833 51.2137 196.254C51.2655 196.108 51.2844 195.953 51.2693 195.8C51.2541 195.646 51.2052 195.498 51.1261 195.366C51.0345 195.238 50.9046 195.144 50.7555 195.095C50.6063 195.047 50.4455 195.048 50.2967 195.097C49.863 195.265 49.482 195.545 49.1928 195.909C48.7598 196.382 48.4137 196.928 48.1708 197.521C48.0689 197.731 48.0075 197.959 47.9897 198.193C48.3597 197.434 48.8356 196.732 49.4031 196.107C49.6662 195.801 50.0013 195.564 50.3785 195.418C50.4601 195.392 50.5481 195.392 50.6298 195.418C50.7116 195.444 50.7831 195.495 50.834 195.564C50.8736 195.657 50.8939 195.756 50.8939 195.856C50.8939 195.957 50.8736 196.056 50.834 196.148C50.6421 196.64 50.3135 197.066 49.8871 197.376C49.4606 197.687 48.9542 197.869 48.4277 197.901C47.8972 197.917 47.3768 197.753 46.9521 197.434C46.5275 197.116 46.2239 196.662 46.0915 196.148C46.0517 195.949 46.0827 195.743 46.1791 195.564C46.2258 195.491 46.2945 195.435 46.3754 195.403C46.4562 195.372 46.545 195.367 46.6288 195.389C47.0002 195.53 47.3199 195.781 47.5458 196.107C48.0709 196.785 48.4722 197.55 48.7314 198.368Z" fill="#263238"/>
<path d="M94.5037 98.0862C81.6545 95.7499 55.2203 102.21 55.2203 102.21L49.5608 95.7324H19.7741L14.5994 107.869L28.7101 128.895L32.01 141.283C32.01 141.283 45.9689 139.075 45.379 139.145C44.7891 139.215 54.3325 137.165 54.9107 137.089C78.1911 133.912 90.608 124.1 97.5466 117.161C104.625 110.048 99.4039 98.9739 94.5037 98.0862Z" fill="#263238"/>
<path d="M34.428 143.292C34.3637 142.871 34.1768 141.744 33.7972 139.431C33.5928 138.193 33.3358 136.686 33.0087 134.951C32.8393 134.087 32.6583 133.164 32.4247 132.195C32.3137 131.71 32.1969 131.208 32.0567 130.7C31.9808 130.448 31.9049 130.191 31.8114 129.934C31.7319 129.658 31.599 129.4 31.4201 129.175L31.3792 129.362C36.916 127.394 43.8312 124.801 51.2078 121.688C55.7459 119.76 60.0212 117.81 63.7883 115.783C65.5859 114.848 67.3099 113.778 68.9455 112.582C70.4757 111.455 71.8366 110.328 73.1156 109.341C75.0655 107.705 77.2769 106.41 79.657 105.509C80.0391 105.373 80.4292 105.259 80.8251 105.171C81.1072 105.091 81.3939 105.028 81.6837 104.984L82.2152 104.89C82.2773 104.882 82.3381 104.867 82.3962 104.844C82.334 104.84 82.2716 104.84 82.2094 104.844L81.672 104.914C81.3807 104.947 81.0919 105 80.8076 105.071C80.4126 105.154 80.0227 105.26 79.6395 105.387C78.5918 105.726 77.5834 106.176 76.6316 106.73C75.37 107.457 74.1618 108.273 73.0163 109.171C71.7256 110.147 70.3531 111.262 68.8287 112.378C67.1933 113.556 65.4735 114.612 63.6832 115.538C59.9219 117.547 55.6466 119.486 51.1202 121.413C43.7495 124.52 36.8401 127.137 31.3208 129.128L31.1689 129.187L31.2858 129.321C31.4342 129.525 31.5486 129.752 31.6245 129.993C31.718 130.244 31.7939 130.495 31.864 130.746C32.01 131.243 32.1326 131.739 32.2436 132.224C32.4714 133.188 32.6641 134.11 32.8277 134.969C33.1722 136.721 33.4468 138.199 33.6687 139.431C33.8906 140.663 34.0775 141.61 34.2002 142.281C34.2644 142.608 34.317 142.865 34.3579 143.023C34.3988 143.181 34.428 143.292 34.428 143.292Z" fill="#455A64"/>
<path d="M16.0771 98.1621L15.8142 102.116C15.8142 102.116 12.4676 108.447 12.1639 114.113C11.9829 117.407 11.9128 122.26 11.8836 125.747C11.8577 128.555 12.6337 131.313 14.1205 133.696L22.9339 141.873L28.3889 162.017L35.3975 186.377L49.9989 182.604L47.8671 131.424C47.8145 124.415 44.6256 116.239 40.6365 107.735L39.264 96.48L16.0771 98.1621Z" fill="#263238"/>
<path d="M50.0046 175.339C49.986 175.268 49.9742 175.196 49.9696 175.123C49.9696 174.953 49.9404 174.743 49.917 174.48C49.882 173.896 49.8294 173.061 49.7593 172.016C49.6367 169.837 49.4673 166.759 49.2512 162.945C48.8657 155.253 48.3284 144.682 47.7385 133.007C47.5516 130.086 47.6217 127.207 47.0026 124.538C46.4261 121.967 45.4253 119.509 44.0415 117.266C42.7812 115.241 41.2171 113.421 39.4041 111.87C37.8115 110.529 36.0429 109.413 34.1476 108.552C31.402 107.29 28.4402 106.564 25.4218 106.415C24.6028 106.373 23.7821 106.373 22.963 106.415L22.3205 106.444H22.0811C23.1819 106.272 24.2968 106.208 25.4102 106.251C28.4618 106.343 31.4659 107.031 34.2527 108.278C36.1804 109.132 37.9807 110.248 39.6026 111.595C41.4574 113.158 43.0574 115.001 44.3452 117.056C45.764 119.332 46.7907 121.829 47.3822 124.444C48.0189 127.178 47.9663 130.069 48.1357 132.977C48.6788 144.659 49.1694 155.23 49.5257 162.922C49.6834 166.73 49.8119 169.825 49.8995 171.998C49.9346 173.049 49.9637 173.873 49.9813 174.469C49.9813 174.731 49.9813 174.942 49.9813 175.111C49.9984 175.186 50.0063 175.262 50.0046 175.339Z" fill="#455A64"/>
<path d="M39.8831 143.362C39.7779 143.309 40.6832 141.206 41.898 138.654C43.1129 136.102 44.1934 134.081 44.2985 134.128C44.4036 134.174 43.4984 136.289 42.2777 138.835C41.057 141.382 39.9882 143.414 39.8831 143.362Z" fill="#455A64"/>
<path d="M29.7148 136.394C29.8257 136.353 30.2988 137.334 30.7427 138.584C31.1866 139.834 31.4844 140.879 31.3793 140.92C31.2742 140.961 30.7953 139.98 30.3455 138.73C29.8958 137.48 29.6038 136.435 29.7148 136.394Z" fill="#455A64"/>
<path d="M22.4024 130.349C22.4346 130.483 22.4522 130.62 22.455 130.758C22.455 131.073 22.4958 131.459 22.525 131.926C22.5834 133.001 22.6594 134.455 22.7528 136.219C22.8112 139.858 23.9209 144.758 25.1416 150.16C26.3623 155.563 27.6939 160.404 28.7335 163.88C29.2417 165.632 29.7089 167.016 30.036 167.968C30.2357 168.456 30.4054 168.955 30.5441 169.463C30.4654 169.351 30.4006 169.229 30.3514 169.101C30.2404 168.862 30.071 168.517 29.8841 168.026C29.5103 167.08 28.9963 165.69 28.4473 163.967C27.3376 160.498 26.0002 155.656 24.7328 150.248C23.4654 144.839 22.4374 139.887 22.455 136.231C22.3907 134.408 22.3673 132.942 22.3615 131.92C22.3615 131.453 22.3615 131.068 22.3615 130.752C22.3531 130.616 22.3669 130.48 22.4024 130.349Z" fill="#455A64"/>
<path d="M55.4247 105.171C55.4598 105.241 54.6129 105.597 53.4623 106.497C51.9767 107.679 50.7651 109.17 49.9112 110.865C49.0717 112.572 48.5192 114.405 48.2759 116.291C48.0832 117.74 48.0715 118.657 48.0014 118.657C47.9418 118.448 47.9181 118.231 47.9313 118.014C47.9124 117.43 47.9299 116.844 47.9839 116.262C48.1423 114.319 48.6696 112.424 49.5375 110.679C50.4142 108.927 51.7004 107.412 53.2871 106.263C53.7649 105.921 54.2755 105.628 54.8115 105.387C55.0013 105.279 55.209 105.206 55.4247 105.171Z" fill="#455A64"/>
<path d="M77.2625 104.032C77.3384 104.131 76.0418 105.2 74.751 106.783C73.4603 108.365 72.6718 109.849 72.5608 109.791C72.4499 109.732 73.0865 108.143 74.424 106.514C75.7614 104.884 77.2041 103.944 77.2625 104.032Z" fill="#455A64"/>
<path d="M42.7099 115.1C42.6398 115.1 42.7099 114.06 42.6631 112.401C42.5648 110.233 42.3111 108.074 41.9039 105.942L40.689 99.5172C40.4857 98.6336 40.3529 97.7352 40.2919 96.8306C40.5901 97.6853 40.8205 98.5621 40.9811 99.453C41.3432 101.088 41.863 103.337 42.3185 105.878C42.7336 108.028 42.9487 110.212 42.961 112.401C42.9584 113.065 42.9214 113.728 42.85 114.387C42.8389 114.63 42.7917 114.87 42.7099 115.1Z" fill="#455A64"/>
<path d="M42.6573 97.8525C42.6573 97.8525 42.7274 97.7474 42.9259 97.6948C43.2088 97.6345 43.5038 97.6737 43.7611 97.8058C43.9627 97.9074 44.1326 98.0625 44.252 98.2541C44.3715 98.4457 44.4361 98.6664 44.4386 98.8921C44.4367 99.173 44.3496 99.4466 44.1891 99.677C44.0285 99.9074 43.802 100.084 43.5392 100.183C43.2709 100.271 42.9811 100.27 42.7135 100.18C42.4459 100.089 42.215 99.9139 42.0557 99.6806C41.9229 99.4968 41.8448 99.2792 41.8303 99.0529C41.8159 98.8266 41.8656 98.6008 41.9739 98.4015C42.1095 98.1437 42.3366 97.9458 42.6106 97.8467C42.8033 97.7824 42.9143 97.8058 42.9201 97.8467C42.9259 97.8876 42.4821 97.9927 42.2426 98.5476C42.1765 98.7142 42.1591 98.8961 42.1925 99.0723C42.2258 99.2484 42.3085 99.4114 42.4309 99.5424C42.5533 99.6733 42.7103 99.7668 42.8838 99.812C43.0573 99.8571 43.24 99.8521 43.4107 99.7974C43.5923 99.7259 43.7494 99.6036 43.8634 99.4451C43.9773 99.2867 44.0432 99.0987 44.0532 98.9038C44.0607 98.7414 44.0245 98.5799 43.9485 98.4361C43.8725 98.2923 43.7594 98.1715 43.621 98.0861C43.3282 97.9189 42.9941 97.8379 42.6573 97.8525Z" fill="#455A64"/>
<path d="M44.275 43.3486C44.275 43.3486 53.7542 46.6836 54.788 52.6117C55.8218 58.5398 60.6752 79.8403 60.6752 79.8403L89.2938 83.549L85.9647 91.2877C85.9647 91.2877 53.7717 92.9172 52.2707 91.2877C50.7697 89.6582 44.275 43.3486 44.275 43.3486Z" fill="#455A64"/>
<path d="M15.2595 98.3549C15.6619 96.3119 16.1945 94.2967 16.8539 92.3216L12.0588 56.0461L8.72974 43.962L19.453 41.0417C23.3895 47.0984 34.9479 47.589 36.6183 41.0417L44.2752 43.3488C44.2752 43.3488 55.5474 63.7497 55.0218 70.8752C54.4377 78.6898 56.9316 91.317 56.9316 91.317C56.9316 91.317 57.2061 95.4813 54.3151 97.4321L15.2595 98.3549Z" fill="#455A64"/>
<path d="M8.72961 43.9443C8.72961 43.9443 2.69634 47.0807 1.27125 53.003C0.243317 57.2666 -0.983195 83.7943 1.27125 88.4024C3.52569 93.0106 5.29538 95.9426 10.1547 96.7661C15.014 97.5896 44.9292 96.3631 44.9292 96.3631L46.5354 84.8105L14.5935 80.0563C14.5935 80.0563 13.7933 56.2912 13.4254 54.6442" fill="#455A64"/>
<path d="M19.4528 41.0765C19.4528 41.0765 18.933 38.6177 19.4528 38.3899C19.9726 38.1621 36.7934 38.8513 36.9102 39.4236C36.9704 40.248 36.9704 41.0757 36.9102 41.9C36.9102 41.9 35.0704 46.444 30.8419 46.7652C26.6133 47.0864 19.6748 42.7177 19.4528 41.0765Z" fill="#455A64"/>
<path d="M50.1157 86.2823L58.4326 85.6982L62.4217 88.4024L65.8559 93.0281C65.6994 93.2503 65.4702 93.411 65.208 93.4824C64.9457 93.5538 64.6667 93.5315 64.4191 93.4194L65.6982 94.9672C65.6286 95.1067 65.5309 95.2304 65.4112 95.3305C65.2916 95.4306 65.1526 95.5048 65.0029 95.5487C64.8532 95.5926 64.6961 95.6051 64.5414 95.5854C64.3867 95.5657 64.2377 95.5143 64.1037 95.4344L64.8922 96.6551C64.4578 96.8011 63.9872 96.7983 63.5546 96.6471C63.122 96.4958 62.7521 96.2048 62.5034 95.8199C61.6903 94.6601 60.7985 93.5576 59.8343 92.52L56.7914 91.5096L59.7584 94.459L61.4054 97.0756C61.4054 97.0756 61.1075 97.8991 60.506 97.5195C59.6853 96.7728 58.9292 95.958 58.2457 95.084L54.7414 92.8529C54.7414 92.8529 52.265 93.9743 51.494 93.986C50.7231 93.9976 48.2292 92.4032 48.2292 92.4032L45.8579 93.9743L46.4945 85.6982L50.1157 86.2823Z" fill="#A8605D"/>
<path d="M65.7216 94.9381C65.3431 94.5852 65.0025 94.1937 64.7054 93.77C64.1213 93.0166 63.3036 91.9653 62.4276 90.7855L61.5924 89.6583L61.6333 89.6933C60.6754 89.1093 59.8461 88.5895 59.2679 88.2098C58.9438 88.0295 58.6419 87.8119 58.3684 87.5615C58.7169 87.6843 59.0501 87.847 59.3613 88.0463C59.9453 88.3792 60.8156 88.864 61.791 89.4363L62.6378 90.5636C63.5139 91.7317 64.2907 92.8122 64.8397 93.6006C65.181 94.0134 65.4767 94.4618 65.7216 94.9381Z" fill="#844949"/>
<path d="M64.7169 96.3338C64.3831 96.0001 64.0856 95.6321 63.8291 95.2358C63.3152 94.535 62.6143 93.5537 61.8609 92.4557L61.1191 91.3577L61.1775 91.4103C60.1087 90.9443 59.076 90.3997 58.0879 89.7808C59.1919 90.1566 60.2674 90.6114 61.306 91.1416H61.3411V91.1766L62.0945 92.263C62.8479 93.3552 63.5137 94.3597 63.9868 95.0956C64.2779 95.4783 64.523 95.8939 64.7169 96.3338Z" fill="#844949"/>
<path d="M15.0724 96.912C15.1188 96.9045 15.1661 96.9045 15.2126 96.912H15.6447L17.3093 96.8653L23.582 96.7368L45.5775 96.3688L45.4431 96.4973C45.7352 92.8762 46.0564 88.9396 46.3893 84.8162L46.5178 84.9798L38.8258 83.8117L14.5759 80.1789H14.4591V80.0562C14.7187 73.9112 14.6153 67.7563 14.1496 61.6235C13.9744 59.3983 13.7816 57.6578 13.6473 56.4721C13.5772 55.8881 13.5246 55.4384 13.4896 55.1171C13.4896 54.9711 13.4896 54.8543 13.4487 54.7667C13.4078 54.6791 13.4487 54.6499 13.4487 54.6499C13.4487 54.6499 13.4487 54.6849 13.4487 54.7609C13.4487 54.8368 13.4838 54.9653 13.5071 55.1113C13.5538 55.4267 13.6181 55.8823 13.7057 56.4605C13.8634 57.6286 14.0795 59.3807 14.2898 61.6118C14.8175 67.745 14.9619 73.9051 14.7219 80.0562L14.611 79.9219L38.8667 83.5138L46.5587 84.6819H46.693V84.8221C46.3543 88.9105 46.0272 92.8645 45.7235 96.5031V96.6258H45.595L23.5937 96.8828L17.321 96.9353H15.0724V96.912Z" fill="#263238"/>
<path d="M36.9102 39.4238C36.9668 39.6985 36.9922 39.9787 36.9861 40.259C36.9861 40.5277 36.9861 40.8431 36.9861 41.2461C36.9849 41.6946 36.8977 42.1387 36.7291 42.5544C36.3542 42.9651 35.8633 43.2523 35.3215 43.3779C34.7351 43.5352 34.1404 43.66 33.5402 43.7517C32.1736 43.9773 30.7901 44.0848 29.4051 44.0729C26.8809 44.0511 24.3737 43.6575 21.9642 42.9048C21.2231 42.6999 20.5248 42.3636 19.9025 41.9119C19.7367 41.7855 19.584 41.6427 19.447 41.4855C19.3938 41.4333 19.3503 41.372 19.3185 41.3045C19.3185 41.3045 19.5346 41.5206 19.9726 41.8184C20.6063 42.2206 21.3004 42.5184 22.0285 42.7004C24.4297 43.377 26.9104 43.7305 29.4051 43.7517C30.7735 43.7633 32.1406 43.6657 33.4934 43.4596C34.0832 43.3757 34.668 43.2606 35.2456 43.115C35.5027 43.05 35.7515 42.9559 35.9874 42.8347C36.0977 42.7816 36.2032 42.719 36.3027 42.6478C36.3952 42.5908 36.4747 42.5153 36.5364 42.4259C36.6976 42.0399 36.7905 41.6288 36.8109 41.211C36.8459 40.8372 36.8634 40.5102 36.8751 40.2415C36.8668 39.9685 36.8785 39.6952 36.9102 39.4238Z" fill="#263238"/>
<path d="M22.1979 42.8698C21.6708 42.2789 21.3653 41.5233 21.3335 40.7322C21.2021 39.949 21.351 39.1445 21.7541 38.4602C21.6502 39.203 21.6112 39.9534 21.6373 40.703C21.7634 41.4396 21.9509 42.1644 22.1979 42.8698Z" fill="#263238"/>
<path d="M25.6612 38.4778C25.7546 38.4778 25.5561 39.6459 25.5969 41.0418C25.6378 42.4377 25.8831 43.5824 25.7955 43.6058C25.1718 41.9609 25.1245 40.1531 25.6612 38.4778Z" fill="#263238"/>
<path d="M30.0301 43.8449C29.8928 43.0035 29.8536 42.1489 29.9132 41.2984C29.8788 40.4472 29.9415 39.5948 30.1001 38.7578C30.2443 39.5985 30.2836 40.4539 30.2169 41.3043C30.2553 42.1556 30.1926 43.0084 30.0301 43.8449Z" fill="#263238"/>
<path d="M34.8075 39.1729C35.0301 39.9076 35.0682 40.686 34.9185 41.439C34.8542 42.2042 34.5992 42.9411 34.1767 43.5825C34.0891 43.5474 34.4454 42.6071 34.6148 41.3981C34.7842 40.1891 34.7141 39.1729 34.8075 39.1729Z" fill="#263238"/>
<path d="M49.5315 75.6758C49.5266 75.4018 49.5481 75.128 49.5957 74.8581C49.66 74.3324 49.7768 73.579 49.9111 72.6504C50.3517 70.243 50.4598 67.7865 50.2324 65.3497C49.9318 62.922 49.4237 60.5244 48.7138 58.1834C48.4685 57.319 48.2641 56.6006 48.1006 56.0341C48.0144 55.7751 47.95 55.5094 47.9078 55.2397C48.0362 55.4811 48.138 55.7357 48.2115 55.999C48.3868 56.4955 48.6379 57.2197 48.9183 58.1191C49.6972 60.4594 50.2391 62.872 50.5361 65.3205C50.7711 67.7821 50.6332 70.265 50.1272 72.6854C49.9579 73.5673 49.8235 74.3032 49.7126 74.8756C49.6792 75.1477 49.6185 75.4158 49.5315 75.6758Z" fill="#263238"/>
<path d="M94.7898 73.4156L83.2022 99.0497C82.89 99.6072 82.4421 100.077 81.8999 100.415C81.3577 100.753 80.7388 100.948 80.1008 100.983L26.6425 100.913C26.7059 100.37 26.964 99.8684 27.3688 99.5011C27.7736 99.1339 28.2978 98.9257 28.8443 98.9153L49.1285 98.4656L59.513 73.5499C59.6736 73.1606 59.9454 72.8272 60.2945 72.5914C60.6435 72.3556 61.0542 72.2278 61.4754 72.2241L93.8553 71.9788C94.0261 71.9772 94.1946 72.0188 94.3451 72.0995C94.4957 72.1803 94.6234 72.2977 94.7166 72.4409C94.8097 72.5841 94.8652 72.7485 94.878 72.9189C94.8908 73.0892 94.8605 73.2601 94.7898 73.4156Z" fill="#E0E0E0"/>
<path d="M94.7898 73.4159C94.843 73.3249 94.8749 73.2231 94.8833 73.1181C94.9056 72.9626 94.8914 72.804 94.8417 72.655C94.792 72.5059 94.7083 72.3705 94.5971 72.2595C94.4337 72.0876 94.214 71.9798 93.978 71.9558C93.721 71.9558 93.4524 71.9558 93.1545 71.9558H91.0928L77.7647 72.0084L68.4199 72.0609H63.1634H61.7908C61.3027 72.0215 60.8136 72.125 60.3833 72.3588C59.9467 72.6135 59.6044 73.0028 59.4079 73.4685C59.221 73.9065 59.04 74.3504 58.8531 74.7943C55.8744 81.9256 52.557 89.8629 49.0059 98.3725L49.1461 98.2732L38.1834 98.5127L32.4714 98.6353L29.5511 98.6996H28.8152C28.2337 98.7179 27.678 98.9444 27.2493 99.3377C26.8206 99.7311 26.5472 100.265 26.479 100.843V101.024H26.6659L59.9569 101.059H79.4468C79.7154 101.059 79.9783 101.059 80.2528 101.059C80.5287 101.039 80.8013 100.986 81.0646 100.901C81.5737 100.747 82.0448 100.487 82.4472 100.139C82.8496 99.7909 83.1745 99.3622 83.4008 98.8806C83.8097 97.9578 84.2185 97.0526 84.6157 96.1765C87.7695 89.1386 90.3277 83.4441 92.0974 79.4959L94.1123 74.9637L94.6263 73.7956C94.7431 73.5269 94.7957 73.3867 94.7957 73.3867L94.5971 73.7839C94.4686 74.0526 94.2876 74.4439 94.054 74.952C93.575 75.9916 92.8858 77.5101 91.9806 79.4609L84.3879 96.0947L83.1614 98.793C82.948 99.2459 82.6409 99.6483 82.2602 99.9736C81.8796 100.299 81.4343 100.539 80.9536 100.68C80.4521 100.817 79.9303 100.867 79.4117 100.826H74.4356L59.9219 100.79L26.6309 100.732L26.7944 100.913C26.8331 100.598 26.9408 100.295 27.1098 100.025C27.3599 99.6423 27.7263 99.3495 28.1552 99.1902C28.3669 99.1122 28.5898 99.0688 28.8152 99.0617H29.5453L32.4655 98.9975L38.1776 98.8748L49.1461 98.6295H49.2454L49.2863 98.5361C52.8256 90.0206 56.1314 82.0716 59.0925 74.9403C59.2794 74.4964 59.4605 74.0526 59.6474 73.6145C59.8165 73.2011 60.1186 72.8558 60.5059 72.6333C60.8975 72.4219 61.3412 72.3266 61.785 72.3588H63.1575L68.414 72.3121L77.7589 72.2245L91.087 72.0726L93.1487 72.0434C93.4465 72.0434 93.7327 72.0434 93.9663 72.0434C94.1878 72.0657 94.3945 72.1649 94.5504 72.3238C94.6585 72.429 94.7419 72.5569 94.7944 72.6984C94.847 72.8398 94.8674 72.9911 94.8541 73.1414C94.8389 73.2343 94.8175 73.326 94.7898 73.4159Z" fill="#263238"/>
<path d="M50.1157 101.205C50.181 101.119 50.234 101.025 50.2734 100.925C50.3785 100.703 50.5012 100.428 50.6589 100.095C50.9976 99.3242 51.459 98.2904 52.0139 97.0289C53.147 94.4298 54.6772 90.8262 56.3301 86.8313C57.9829 82.8364 59.4606 79.1919 60.4535 76.552C60.9558 75.2262 61.3588 74.1515 61.6216 73.4039C61.7384 73.0593 61.8318 72.7731 61.9136 72.5395C61.9549 72.4406 61.9824 72.3364 61.9954 72.23C61.9308 72.3164 61.8815 72.4132 61.8493 72.5162L61.4989 73.3572L60.2374 76.4644C59.1393 79.1276 57.6617 82.7312 56.0322 86.7086C54.4027 90.686 52.9017 94.3013 51.8036 96.9413C51.2897 98.2203 50.8633 99.2775 50.5421 100.054L50.215 100.907C50.1682 101.001 50.1348 101.101 50.1157 101.205Z" fill="#455A64"/>
<path d="M71.089 85.8445C71.089 86.1728 71.1864 86.4937 71.369 86.7666C71.5515 87.0395 71.8109 87.2521 72.1143 87.3775C72.4177 87.5029 72.7515 87.5354 73.0735 87.4709C73.3954 87.4064 73.6909 87.2479 73.9227 87.0153C74.1544 86.7828 74.3119 86.4867 74.3753 86.1645C74.4386 85.8424 74.4049 85.5087 74.2785 85.2057C74.152 84.9027 73.9385 84.6441 73.665 84.4625C73.3914 84.2809 73.0702 84.1846 72.7419 84.1858C72.5243 84.1858 72.3089 84.2287 72.108 84.3122C71.9071 84.3956 71.7246 84.5179 71.571 84.672C71.4175 84.8261 71.2959 85.009 71.2131 85.2102C71.1304 85.4114 71.0882 85.627 71.089 85.8445Z" fill="white"/>
<path d="M87.4949 89.7283C88.2691 89.5892 89.0213 89.3476 89.7318 89.0099C89.9576 88.8512 90.1364 88.6345 90.2495 88.3827C90.3625 88.1309 90.4056 87.8533 90.3743 87.579L90.2516 87.1702C90.2516 87.1702 91.6241 86.0021 91.4197 85.015C91.4197 85.015 92.7572 83.8995 92.3017 82.854C92.3017 82.854 93.5282 82.0831 93.1193 81.3296C92.8787 80.9771 92.5614 80.6836 92.1912 80.4712C91.821 80.2588 91.4075 80.1329 90.9817 80.1031C90.3334 80.0739 88.2775 79.6359 88.0965 79.9513C88.0965 79.9513 87.5942 80.7865 88.0147 81.1194L88.6396 81.6158C88.6396 81.6158 86.8057 81.172 86.5312 81.5341C86.2567 81.8962 85.9471 82.7022 86.6714 83.0643C86.6714 83.0643 85.9413 83.1811 85.9355 83.6483C85.9296 84.1156 85.9822 84.6646 86.4611 84.8164C86.94 84.9683 87.3956 85.1902 87.3956 85.1902C87.3956 85.1902 86.6363 85.0851 86.6247 85.4823C86.613 85.8794 86.4319 86.2006 86.9108 86.6504C87.3898 87.1001 88.2483 88.0579 88.2483 88.0579L87.4949 89.7283Z" fill="#A8605D"/>
<path d="M87.46 85.2428C87.46 85.2428 87.6702 85.2428 88.0031 85.3187C88.4229 85.3977 88.821 85.5649 89.1712 85.8094C89.5229 86.0615 89.8142 86.3887 90.0239 86.7672C90.1875 87.0592 90.2517 87.2636 90.2751 87.2578C90.2703 87.0677 90.2202 86.8815 90.1291 86.7146C89.9339 86.3019 89.6363 85.946 89.2647 85.6809C88.8911 85.4146 88.454 85.2514 87.9973 85.2078C87.818 85.1749 87.6334 85.187 87.46 85.2428Z" fill="#844949"/>
<path d="M91.49 84.9213C91.324 84.7232 91.1267 84.5535 90.9059 84.419C90.412 84.0646 89.874 83.776 89.3056 83.5605C88.7309 83.3393 88.1303 83.1922 87.5184 83.1224C87.2666 83.0861 87.0109 83.0861 86.7592 83.1224C87.6056 83.2356 88.4389 83.4312 89.2472 83.7065C90.0343 84.0338 90.7858 84.4408 91.49 84.9213Z" fill="#844949"/>
<path d="M92.3368 82.8132C91.2278 82.0988 89.9559 81.6769 88.6398 81.5867C88.6398 81.6334 89.4983 81.7794 90.5146 82.1182C91.5308 82.4569 92.3135 82.8541 92.3368 82.8132Z" fill="#844949"/>
</svg>
