<?xml version="1.0" encoding="UTF-8"?>
<svg version="1.1" xmlns="http://www.w3.org/2000/svg" width="500" height="500">
<path d="M0 0 C165 0 330 0 500 0 C500 165 500 330 500 500 C335 500 170 500 0 500 C0 335 0 170 0 0 Z " fill="#F2F1EE" transform="translate(0,0)"/>
<path d="M0 0 C1.47265625 1.86328125 1.47265625 1.86328125 3.0625 4.3125 C3.58972656 5.11300781 4.11695313 5.91351563 4.66015625 6.73828125 C6 9 6 9 7 12 C9.01508358 12.73323796 9.01508358 12.73323796 11 13 C9.92598892 15.91517292 9.22189824 17.77810176 7 20 C7 21.32 7 22.64 7 24 C9.21713508 20.74820188 11.34832443 17.5786304 13 14 C13.99 14 14.98 14 16 14 C16 15.32 16 16.64 16 18 C16.66 18 17.32 18 18 18 C17.67 18.66 17.34 19.32 17 20 C17.66 20.33 18.32 20.66 19 21 C19.99 18.525 19.99 18.525 21 16 C22.42122098 16.4008572 23.83686706 16.82150163 25.25 17.25 C26.03890625 17.48203125 26.8278125 17.7140625 27.640625 17.953125 C32.1322392 19.94609289 34.4753677 23.22225475 36.22265625 27.71484375 C38.53448837 34.53707052 38.56973854 41.26781671 38.46655273 48.37963867 C38.43749191 50.56310816 38.44600581 52.74415215 38.45898438 54.92773438 C38.43067178 73.56932822 38.43067178 73.56932822 33 79 C32.505 75.04 32.505 75.04 32 71 C30.02 70.505 30.02 70.505 28 70 C27.18022393 72.8314037 26.36905726 75.66482902 25.5625 78.5 C25.33240234 79.29148437 25.10230469 80.08296875 24.86523438 80.8984375 C23.77527021 84.75280354 22.90777127 88.36799584 22.59765625 92.3671875 C22 96 22 96 20.2421875 98.1015625 C6.88301961 106.69904679 -4.20778515 110.29209031 -20 109 C-20.92554688 108.92652344 -21.85109375 108.85304688 -22.8046875 108.77734375 C-35.09395071 107.02461277 -46.81986351 99.54926335 -54.3125 89.875 C-57.46685708 85.57124705 -59.18512757 82.25456439 -59.5625 76.875 C-59.78049065 73.30201227 -59.78049065 73.30201227 -61 70 C-61.1349498 67.57779073 -61.21254926 65.1855955 -61.23828125 62.76171875 C-61.246353 62.04393753 -61.25442474 61.32615631 -61.26274109 60.58662415 C-61.27657786 59.06599337 -61.28730185 57.54533159 -61.29516602 56.0246582 C-61.31235842 53.70658958 -61.35624181 51.38995531 -61.40039062 49.07226562 C-61.41051977 47.59376047 -61.41903519 46.11524321 -61.42578125 44.63671875 C-61.44328934 43.94696457 -61.46079742 43.25721039 -61.47883606 42.54655457 C-61.45715424 37.70076026 -60.22124201 35.52298366 -57 32 C-56.97418871 29.87886516 -56.97418871 29.87886516 -57.9375 27.875 C-58.39382812 26.72257812 -58.39382812 26.72257812 -58.859375 25.546875 C-60.53513385 21.80511209 -62.22880105 18.07487217 -64.01171875 14.3828125 C-65 12 -65 12 -65 9 C-64.195625 8.71125 -63.39125 8.4225 -62.5625 8.125 C-59.8673532 7.26737432 -59.8673532 7.26737432 -59 5 C-56.67843403 4.59270772 -54.3431213 4.25561323 -52 4 C-52 3.34 -52 2.68 -52 2 C-49.8535247 2.11344376 -47.70779408 2.24106345 -45.5625 2.375 C-43.77005859 2.47941406 -43.77005859 2.47941406 -41.94140625 2.5859375 C-40.48541016 2.79089844 -40.48541016 2.79089844 -39 3 C-38.67 3.66 -38.34 4.32 -38 5 C-36.11235097 5.68472665 -36.11235097 5.68472665 -33.9375 6.125 C-33.20402344 6.29257813 -32.47054687 6.46015625 -31.71484375 6.6328125 C-31.14894531 6.75398437 -30.58304688 6.87515625 -30 7 C-30 7.66 -30 8.32 -30 9 C-29.21625 8.525625 -28.4325 8.05125 -27.625 7.5625 C-26.11051322 6.66101977 -24.5764103 5.78820515 -23 5 C-23.08701172 6.05574219 -23.08701172 6.05574219 -23.17578125 7.1328125 C-23.75116495 19.72549566 -18.59634054 29.98073507 -13.29296875 41.1328125 C-11.82063746 44.3977405 -10.80944353 47.51939284 -10 51 C-6.87908779 46.31863168 -5.00444755 41.12989243 -2.875 35.9375 C-2.40707031 34.84244141 -1.93914062 33.74738281 -1.45703125 32.61914062 C1.92784408 24.33458424 3.92694044 16.63081297 0.5 8 C-1 4.11111111 -1 4.11111111 -1 2 C-3.64 2 -6.28 2 -9 2 C-9 1.67 -9 1.34 -9 1 C-2.25 0 -2.25 0 0 0 Z " fill="#82C5E3" transform="translate(173,242)"/>
<path d="M0 0 C2.1464753 0.11344376 4.29220592 0.24106345 6.4375 0.375 C8.22994141 0.47941406 8.22994141 0.47941406 10.05859375 0.5859375 C11.51458984 0.79089844 11.51458984 0.79089844 13 1 C13.33 1.66 13.66 2.32 14 3 C15.88764903 3.68472665 15.88764903 3.68472665 18.0625 4.125 C18.79597656 4.29257813 19.52945313 4.46015625 20.28515625 4.6328125 C20.85105469 4.75398437 21.41695312 4.87515625 22 5 C22 5.66 22 6.32 22 7 C22.78375 6.525625 23.5675 6.05125 24.375 5.5625 C25.88948678 4.66101977 27.4235897 3.78820515 29 3 C29.51913464 9.77928764 28.1297826 13.68338356 24.75 19.5 C23.95225038 20.9265946 23.15537128 22.35367635 22.359375 23.78125 C21.96814453 24.4721875 21.57691406 25.163125 21.17382812 25.875 C19.33880236 29.19697676 17.67246791 32.5936892 16 36 C13 32.125 13 32.125 13 31 C12.67 31.66 12.34 32.32 12 33 C10.515 33.495 10.515 33.495 9 34 C10.32 34.66 11.64 35.32 13 36 C12.67 36.99 12.34 37.98 12 39 C10.515 38.505 10.515 38.505 9 38 C8.67 38.66 8.34 39.32 8 40 C11.3863251 41.50930183 11.3863251 41.50930183 15 42 C15 41.01 15 40.02 15 39 C15.66 39 16.32 39 17 39 C17.33 40.65 17.66 42.3 18 44 C17.34 44 16.68 44 16 44 C16.66 44.33 17.32 44.66 18 45 C17.71835462 51.00349356 17.3809109 57.00197967 17 63 C16.91129639 64.40306396 16.91129639 64.40306396 16.82080078 65.83447266 C16.05514173 77.29597952 15.20960256 87.58079488 10 98 C2.27618811 94.56719472 -3.76475344 87.79400309 -7 80 C-7.37890625 77.4921875 -7.37890625 77.4921875 -7.5625 74.875 C-7.78049065 71.30201227 -7.78049065 71.30201227 -9 68 C-9.1349498 65.57779073 -9.21254926 63.1855955 -9.23828125 60.76171875 C-9.246353 60.04393753 -9.25442474 59.32615631 -9.26274109 58.58662415 C-9.27657786 57.06599337 -9.28730185 55.54533159 -9.29516602 54.0246582 C-9.31235842 51.70658958 -9.35624181 49.38995531 -9.40039062 47.07226562 C-9.41051977 45.59376047 -9.41903519 44.11524321 -9.42578125 42.63671875 C-9.44328934 41.94696457 -9.46079742 41.25721039 -9.47883606 40.54655457 C-9.45715424 35.70076026 -8.22124201 33.52298366 -5 30 C-4.97418871 27.87886516 -4.97418871 27.87886516 -5.9375 25.875 C-6.39382812 24.72257812 -6.39382812 24.72257812 -6.859375 23.546875 C-8.53513385 19.80511209 -10.22880105 16.07487217 -12.01171875 12.3828125 C-13 10 -13 10 -13 7 C-12.195625 6.71125 -11.39125 6.4225 -10.5625 6.125 C-7.8673532 5.26737432 -7.8673532 5.26737432 -7 3 C-4.67843403 2.59270772 -2.3431213 2.25561323 0 2 C0 1.34 0 0.68 0 0 Z " fill="#81C3E3" transform="translate(121,244)"/>
<path d="M0 0 C1.47265625 1.86328125 1.47265625 1.86328125 3.0625 4.3125 C3.58972656 5.11300781 4.11695313 5.91351563 4.66015625 6.73828125 C6 9 6 9 7 12 C9.01508358 12.73323796 9.01508358 12.73323796 11 13 C9.92598892 15.91517292 9.22189824 17.77810176 7 20 C7 21.32 7 22.64 7 24 C9.21713508 20.74820188 11.34832443 17.5786304 13 14 C13.99 14 14.98 14 16 14 C16 15.32 16 16.64 16 18 C16.66 18 17.32 18 18 18 C17.67 18.66 17.34 19.32 17 20 C17.99 20.99 17.99 20.99 19 22 C18.195625 22.226875 17.39125 22.45375 16.5625 22.6875 C15.716875 23.120625 14.87125 23.55375 14 24 C13.10613836 26.54775306 13.10613836 26.54775306 13 29 C14.32 27.68 15.64 26.36 17 25 C18.485 25.495 18.485 25.495 20 26 C20 26.66 20 27.32 20 28 C19.2575 28.28875 18.515 28.5775 17.75 28.875 C15.06675308 29.920033 15.06675308 29.920033 12.875 31.125 C11 32 11 32 8 32 C8 31.34 8 30.68 8 30 C7.01 29.34 6.02 28.68 5 28 C5.3403125 29.85625 5.3403125 29.85625 5.6875 31.75 C6.20034334 35.68641913 6.20034334 35.68641913 4.5625 38.25 C4.046875 38.8275 3.53125 39.405 3 40 C3 41.32 3 42.64 3 44 C0.8125 46.375 0.8125 46.375 -2 49 C-2.8906724 50.02829817 -3.76596129 51.07013179 -4.625 52.125 C-7 55 -7 55 -8.546875 56.3203125 C-10.54828781 58.63377354 -10.93991352 60.78380141 -11.625 63.75 C-11.86476562 64.75546875 -12.10453125 65.7609375 -12.3515625 66.796875 C-13.96131443 74.74866162 -14.28884172 82.55869878 -14.51757812 90.64257812 C-14.74917251 96.93932362 -15.57114601 102.86285917 -17 109 C-26.82868044 108.06699924 -34.28276061 105.53695929 -43 101 C-42.66226563 100.27941406 -42.32453125 99.55882812 -41.9765625 98.81640625 C-37.38042043 87.75112781 -36.86613508 76.71334744 -36.18725586 64.84692383 C-35.79290234 58.85141351 -35.06167952 52.9150716 -34 47 C-34.99 46.67 -35.98 46.34 -37 46 C-36.01 45.505 -36.01 45.505 -35 45 C-35 43.68 -35 42.36 -35 41 C-35.66 41 -36.32 41 -37 41 C-37 41.99 -37 42.98 -37 44 C-38.485 44.495 -38.485 44.495 -40 45 C-42.6875 43.5625 -42.6875 43.5625 -45 42 C-44.01 41.01 -43.02 40.02 -42 39 C-41.34 39.33 -40.68 39.66 -40 40 C-40 39.34 -40 38.68 -40 38 C-40.598125 37.731875 -41.19625 37.46375 -41.8125 37.1875 C-43.97224808 36.01506533 -45.35790256 34.80630718 -47 33 C-40.375 32 -40.375 32 -37 32 C-37.33 32.99 -37.66 33.98 -38 35 C-37.34 35.66 -36.68 36.32 -36 37 C-35.45730469 35.91460937 -34.91460937 34.82921875 -34.35546875 33.7109375 C-31.23697917 27.47395833 -28.11848958 21.23697917 -25 15 C-22.43228643 17.56771357 -21.89956091 19.86764914 -20.75 23.3125 C-18.6505887 29.45900772 -16.08417246 35.26339184 -13.29296875 41.1328125 C-11.82063746 44.3977405 -10.80944353 47.51939284 -10 51 C-6.87908779 46.31863168 -5.00444755 41.12989243 -2.875 35.9375 C-2.40707031 34.84244141 -1.93914062 33.74738281 -1.45703125 32.61914062 C1.92784408 24.33458424 3.92694044 16.63081297 0.5 8 C-1 4.11111111 -1 4.11111111 -1 2 C-3.64 2 -6.28 2 -9 2 C-9 1.67 -9 1.34 -9 1 C-2.25 0 -2.25 0 0 0 Z " fill="#80C1E1" transform="translate(173,242)"/>
<path d="M0 0 C1.42122098 0.4008572 2.83686706 0.82150163 4.25 1.25 C5.43335938 1.59804688 5.43335938 1.59804688 6.640625 1.953125 C11.1322392 3.94609289 13.4753677 7.22225475 15.22265625 11.71484375 C17.53448837 18.53707052 17.56973854 25.26781671 17.46655273 32.37963867 C17.43749191 34.56310816 17.44600581 36.74415215 17.45898438 38.92773438 C17.43067178 57.56932822 17.43067178 57.56932822 12 63 C11.67 60.36 11.34 57.72 11 55 C9.68 54.67 8.36 54.34 7 54 C6.18022393 56.8314037 5.36905726 59.66482902 4.5625 62.5 C4.33240234 63.29148437 4.10230469 64.08296875 3.86523438 64.8984375 C2.43950007 69.9401646 1.52029574 74.78508177 1 80 C-0.32 79.67 -1.64 79.34 -3 79 C-3 75.02638728 -2.35682249 72.8575164 -1 69.1875 C0.61110341 64.50844435 1.6414138 60.91750579 1 56 C-0.86497477 53.71856187 -0.86497477 53.71856187 -3.8125 53.6875 C-7.34682491 54.03400244 -9.05680047 55.10615854 -12 57 C-12.06058594 55.85660156 -12.12117187 54.71320313 -12.18359375 53.53515625 C-12.26798428 52.04425695 -12.35263302 50.55337225 -12.4375 49.0625 C-12.47681641 48.30775391 -12.51613281 47.55300781 -12.55664062 46.77539062 C-12.44038024 43.08055813 -12.44038024 43.08055813 -14 40 C-14.04080783 38.00041636 -14.04254356 35.99954746 -14 34 C-11.08500057 33.20439236 -8.25438581 32.74677501 -5.25 32.4375 C-4.45078125 32.35371094 -3.6515625 32.26992188 -2.828125 32.18359375 C-2.22484375 32.12300781 -1.6215625 32.06242187 -1 32 C-1.04640625 31.21496094 -1.0928125 30.42992187 -1.140625 29.62109375 C-1.47180049 19.98152138 -1.47180049 19.98152138 1.0625 16.0625 C3.2506133 13.20785634 3.2506133 13.20785634 3 10.1875 C2.16879934 7.84465312 2.16879934 7.84465312 -0.0625 6.6875 C-0.701875 6.460625 -1.34125 6.23375 -2 6 C-1.34 4.02 -0.68 2.04 0 0 Z " fill="#81C0DF" transform="translate(194,258)"/>
<path d="M0 0 C2.1464753 0.11344376 4.29220592 0.24106345 6.4375 0.375 C8.22994141 0.47941406 8.22994141 0.47941406 10.05859375 0.5859375 C11.51458984 0.79089844 11.51458984 0.79089844 13 1 C13.33 1.66 13.66 2.32 14 3 C15.88764903 3.68472665 15.88764903 3.68472665 18.0625 4.125 C18.79597656 4.29257813 19.52945313 4.46015625 20.28515625 4.6328125 C20.85105469 4.75398437 21.41695312 4.87515625 22 5 C22 5.66 22 6.32 22 7 C22.78375 6.525625 23.5675 6.05125 24.375 5.5625 C25.88948678 4.66101977 27.4235897 3.78820515 29 3 C29.51913464 9.77928764 28.1297826 13.68338356 24.75 19.5 C23.95225038 20.9265946 23.15537128 22.35367635 22.359375 23.78125 C21.96814453 24.4721875 21.57691406 25.163125 21.17382812 25.875 C19.33880236 29.19697676 17.67246791 32.5936892 16 36 C14.4375 34.25 14.4375 34.25 13 32 C13.33 30.68 13.66 29.36 14 28 C11.03 28 8.06 28 5 28 C5.66 25.36 6.32 22.72 7 20 C2.48444714 24.27146892 -0.2638136 28.49269716 -3 34 C-3.23187012 33.41508789 -3.46374023 32.83017578 -3.70263672 32.22753906 C-4.75826489 29.56763039 -5.81660382 26.9088084 -6.875 24.25 C-7.23980469 23.32960938 -7.60460937 22.40921875 -7.98046875 21.4609375 C-8.33496094 20.57148438 -8.68945312 19.68203125 -9.0546875 18.765625 C-9.37937012 17.94868164 -9.70405273 17.13173828 -10.03857422 16.29003906 C-10.95992033 13.99826829 -10.95992033 13.99826829 -12.12158203 11.88964844 C-13 10 -13 10 -13 7 C-12.195625 6.71125 -11.39125 6.4225 -10.5625 6.125 C-7.8673532 5.26737432 -7.8673532 5.26737432 -7 3 C-4.67843403 2.59270772 -2.3431213 2.25561323 0 2 C0 1.34 0 0.68 0 0 Z " fill="#DCCC76" transform="translate(121,244)"/>
<path d="M0 0 C0.99 -0.33 1.98 -0.66 3 -1 C10.07865169 -1.56179775 10.07865169 -1.56179775 13.5625 0.5625 C15 3 15 3 15 6.4375 C13.92515741 10.26662671 12.83999703 12.24114575 10 15 C7.75 15.8125 7.75 15.8125 6 16 C6.78130071 18.49552484 6.78130071 18.49552484 8 21 C8.99 21.33 9.98 21.66 11 22 C10.67 23.32 10.34 24.64 10 26 C7.6875 25.8125 7.6875 25.8125 5 25 C3.1875 22.4375 3.1875 22.4375 2 20 C1.67 21.65 1.34 23.3 1 25 C-0.32 24.67 -1.64 24.34 -3 24 C-2.38955672 16.36945905 -0.20378179 9.29810526 2 2 C1.01 2.33 0.02 2.66 -1 3 C-3.33299825 3.03954234 -5.66708189 3.04401732 -8 3 C-8.66 5.64 -9.32 8.28 -10 11 C-8.68 11.33 -7.36 11.66 -6 12 C-6 12.99 -6 13.98 -6 15 C-7.98 15 -9.96 15 -12 15 C-12.33 17.31 -12.66 19.62 -13 22 C-11.02 22 -9.04 22 -7 22 C-6.67 22.99 -6.34 23.98 -6 25 C-9.63 25 -13.26 25 -17 25 C-18.08532075 21.74403775 -17.9505041 21.05328736 -17.00390625 17.91015625 C-16.77509766 17.12576172 -16.54628906 16.34136719 -16.31054688 15.53320312 C-16.06369141 14.71787109 -15.81683594 13.90253906 -15.5625 13.0625 C-15.07984025 11.45064687 -14.60180499 9.83740011 -14.12890625 8.22265625 C-13.91306885 7.50859619 -13.69723145 6.79453613 -13.47485352 6.05883789 C-12.85017243 3.70253584 -12.85017243 3.70253584 -13 0 C-3.52542373 -1.76271186 -3.52542373 -1.76271186 0 0 Z " fill="#FDDF67" transform="translate(284,312)"/>
<path d="M0 0 C7.92011513 0.50960526 7.92011513 0.50960526 11.1640625 4.0625 C13.28457016 8.88183559 14.34868533 12.94683328 13.5390625 18.1875 C10.58240682 21.34806297 7.50880837 22.13260872 3.2265625 22.375 C-1.44893539 22.13726282 -5.08859186 21.55984564 -8.4609375 18.1875 C-9.11948813 11.82151055 -7.91752673 7.56161318 -4.4609375 2.1875 C-2.4609375 0.1875 -2.4609375 0.1875 0 0 Z " fill="#FEB847" transform="translate(224.4609375,269.8125)"/>
<path d="M0 0 C0.66 0 1.32 0 2 0 C1.67 2.31 1.34 4.62 1 7 C2.423125 6.938125 2.423125 6.938125 3.875 6.875 C7 7 7 7 9 9 C8.1875 10.9375 8.1875 10.9375 7 13 C6.01 13.33 5.02 13.66 4 14 C5.32 14.66 6.64 15.32 8 16 C7.67 16.99 7.34 17.98 7 19 C6.01 18.67 5.02 18.34 4 18 C3.67 18.66 3.34 19.32 3 20 C6.3863251 21.50930183 6.3863251 21.50930183 10 22 C10 21.01 10 20.02 10 19 C10.66 19 11.32 19 12 19 C12.33 20.65 12.66 22.3 13 24 C12.34 24 11.68 24 11 24 C11.66 24.33 12.32 24.66 13 25 C13.25 30.625 13.25 30.625 11 34 C9.0546875 34.51171875 9.0546875 34.51171875 6.875 34.6875 C4.956875 34.8421875 4.956875 34.8421875 3 35 C2.67 33.989375 2.34 32.97875 2 31.9375 C0.57345384 28.43407046 -1.21062332 26.94451498 -4.25 24.75 C-6.90237184 22.5989021 -7.89474909 21.70916631 -8.40234375 18.2890625 C-8.03023028 13.24185076 -7.20363604 9.03420835 -4 5 C-2.9790625 3.6078125 -2.9790625 3.6078125 -1.9375 2.1875 C-1.298125 1.465625 -0.65875 0.74375 0 0 Z " fill="#ECEDEB" transform="translate(126,264)"/>
<path d="M0 0 C1.32 0.66 2.64 1.32 4 2 C3.39502042 8.06370342 2.1366972 13.65514242 0.4375 19.5 C0.20353516 20.32242188 -0.03042969 21.14484375 -0.27148438 21.9921875 C-0.84242072 23.99629058 -1.42046705 25.99836591 -2 28 C-2.99 27.67 -3.98 27.34 -5 27 C-4.85769192 25.58297487 -4.71099254 24.1663904 -4.5625 22.75 C-4.48128906 21.96109375 -4.40007812 21.1721875 -4.31640625 20.359375 C-4 18 -4 18 -3 14 C-5.31 18.62 -7.62 23.24 -10 28 C-11.32 27.67 -12.64 27.34 -14 27 C-14.33 22.05 -14.66 17.1 -15 12 C-16.32 17.28 -17.64 22.56 -19 28 C-19.99 28 -20.98 28 -22 28 C-22.32784311 21.95949073 -21.13093049 16.85891514 -19.5 11.0625 C-19.26152344 10.18787109 -19.02304688 9.31324219 -18.77734375 8.41210938 C-18.19273616 6.27244561 -17.60015656 4.13534428 -17 2 C-15.34385343 1.61781233 -13.67542976 1.28604898 -12 1 C-9.88074396 3.11925604 -10.58168983 7.6196093 -10.4375 10.5625 C-10.39431641 11.36880859 -10.35113281 12.17511719 -10.30664062 13.00585938 C-10.20024738 15.00368805 -10.09959112 17.0018207 -10 19 C-9.76812988 18.49549316 -9.53625977 17.99098633 -9.29736328 17.47119141 C-8.24445645 15.18699923 -7.18481832 12.90599306 -6.125 10.625 C-5.76019531 9.8309375 -5.39539063 9.036875 -5.01953125 8.21875 C-4.66503906 7.45820313 -4.31054688 6.69765625 -3.9453125 5.9140625 C-3.62062988 5.2123291 -3.29594727 4.5105957 -2.96142578 3.78759766 C-2 2 -2 2 0 0 Z " fill="#FEDF62" transform="translate(242,220)"/>
<path d="M0 0 C1.875 1.0625 1.875 1.0625 3 3 C3.98041924 9.58281488 1.7258975 16.0349959 -1 22 C-2.92645993 24.3900893 -4.06070483 25.77492361 -7.0703125 26.49609375 C-9.05297435 26.43955396 -11.02905432 26.22252613 -13 26 C-15.5261172 22.2108242 -15.57937617 19.37750883 -15 15 C-13.67472164 9.81350524 -12.19785165 5.35546371 -8.625 1.3125 C-5.44067932 -0.27966034 -3.5149846 -0.53488896 0 0 Z " fill="#F7DC61" transform="translate(193,311)"/>
<path d="M0 0 C3.69230769 0.69230769 3.69230769 0.69230769 5 2 C5.4652292 6.32490853 5.70500473 10.65935537 6 15 C8.64 10.05 11.28 5.1 14 0 C15.32 0.33 16.64 0.66 18 1 C18.21221057 6.8888434 17.55320433 11.83290313 16 17.5 C15.71382812 18.59054687 15.71382812 18.59054687 15.421875 19.703125 C14.95662755 21.47106531 14.47956407 23.23588933 14 25 C12.68 25 11.36 25 10 25 C10.52305433 20.59139921 11.12748816 16.36255922 12 12 C9.69 16.62 7.38 21.24 5 26 C3.68 25.67 2.36 25.34 1 25 C0.67 21.7 0.34 18.4 0 15 C-1.485 20.445 -1.485 20.445 -3 26 C-3.99 26 -4.98 26 -6 26 C-6.30734369 20.12106694 -5.21674254 15.24851322 -3.5625 9.625 C-3.33240234 8.80644531 -3.10230469 7.98789062 -2.86523438 7.14453125 C-1.15053354 1.15053354 -1.15053354 1.15053354 0 0 Z " fill="#F9DD66" transform="translate(201,311)"/>
<path d="M0 0 C1.93681161 -0.08107583 3.8745934 -0.13922475 5.8125 -0.1875 C6.89144531 -0.22230469 7.97039062 -0.25710937 9.08203125 -0.29296875 C12 0 12 0 13.890625 1.26953125 C15.52996462 3.82667016 15.06796426 6.10355913 14.578125 9 C13.44017664 12.93668622 11.22864311 15.28329152 7.75 17.3125 C7.1725 17.539375 6.595 17.76625 6 18 C7.24976756 21.65316671 7.67098753 22.78065836 11 25 C10.67 25.99 10.34 26.98 10 28 C7.125 27.75 7.125 27.75 4 27 C2.625 24.9375 2.625 24.9375 2 23 C1.34 24.32 0.68 25.64 0 27 C-1.32 26.67 -2.64 26.34 -4 26 C-3.49020579 20.49422254 -2.39038417 15.63467848 -0.62109375 10.39453125 C0.04681291 7.81952006 0.09975596 5.65003872 0 3 C0 2.01 0 1.02 0 0 Z " fill="#FEDF63" transform="translate(265,221)"/>
<path d="M0 0 C3.6875 0.875 3.6875 0.875 7 2 C7.75 4.0625 7.75 4.0625 8 7 C6.98787763 8.66510455 5.97158696 10.32819875 4.9140625 11.96484375 C3.45804631 15.20665758 3.85503672 18.28443 4.15234375 21.765625 C4 24 4 24 2.734375 25.75390625 C0.04442972 27.68654711 -2.76694718 27.69499502 -6 28 C-6.433125 26.824375 -6.86625 25.64875 -7.3125 24.4375 C-8.32769863 21.70464302 -9.41234142 19.09602072 -10.625 16.4375 C-12.03598825 12.91002937 -12.61562248 9.76689965 -13 6 C-12.34 5.67 -11.68 5.34 -11 5 C-11 5.66 -11 6.32 -11 7 C-10.01 7.33 -9.02 7.66 -8 8 C-8.33 8.66 -8.66 9.32 -9 10 C-3.39667783 7.90408851 -3.39667783 7.90408851 1 4 C0.01 4 -0.98 4 -2 4 C-2.66 5.32 -3.32 6.64 -4 8 C-4.33 7.34 -4.66 6.68 -5 6 C-3.78741495 2.76643985 -2.98715542 1.99143695 0 0 Z " fill="#EFF0EE" transform="translate(190,264)"/>
<path d="M0 0 C1.47265625 1.86328125 1.47265625 1.86328125 3.0625 4.3125 C3.58972656 5.11300781 4.11695313 5.91351563 4.66015625 6.73828125 C6 9 6 9 7 12 C9.01508358 12.73323796 9.01508358 12.73323796 11 13 C9.92598892 15.91517292 9.22189824 17.77810176 7 20 C7 21.32 7 22.64 7 24 C9.21713508 20.74820188 11.34832443 17.5786304 13 14 C13.99 14 14.98 14 16 14 C16 15.32 16 16.64 16 18 C16.66 18 17.32 18 18 18 C17.67 18.66 17.34 19.32 17 20 C17.66 20.66 18.32 21.32 19 22 C17.7934375 22.3403125 17.7934375 22.3403125 16.5625 22.6875 C15.716875 23.120625 14.87125 23.55375 14 24 C13.10613836 26.54775306 13.10613836 26.54775306 13 29 C14.32 27.68 15.64 26.36 17 25 C17.99 25.33 18.98 25.66 20 26 C20 26.66 20 27.32 20 28 C19.2575 28.28875 18.515 28.5775 17.75 28.875 C15.06675308 29.920033 15.06675308 29.920033 12.875 31.125 C11 32 11 32 8 32 C8 31.34 8 30.68 8 30 C7.01 29.34 6.02 28.68 5 28 C5.144375 29.051875 5.28875 30.10375 5.4375 31.1875 C5 35 5 35 3.51171875 36.578125 C-1.23760776 40 -1.23760776 40 -4 40 C-3.56459142 38.66598223 -3.12652414 37.33283226 -2.6875 36 C-2.41679687 35.17371094 -2.14609375 34.34742188 -1.8671875 33.49609375 C-1.10342982 31.29771016 -0.23003425 29.19904404 0.6875 27.0625 C3.41645705 19.78528121 2.39552453 12.91432287 -0.34375 5.8125 C-1 4 -1 4 -1 2 C-3.64 2 -6.28 2 -9 2 C-9 1.67 -9 1.34 -9 1 C-2.25 0 -2.25 0 0 0 Z " fill="#87C2DF" transform="translate(173,242)"/>
<path d="M0 0 C2.5 1.125 2.5 1.125 4 3 C4.69382391 6.90275951 4.14410506 8.72246433 2.3125 12.25 C-0.06595224 15.07842969 -1.49188148 16.02552263 -5 17 C-3.75023244 20.65316671 -3.32901247 21.78065836 0 24 C-0.33 24.99 -0.66 25.98 -1 27 C-4.24208567 26.64950425 -5.61527704 26.43778819 -7.8125 23.9375 C-8.204375 23.298125 -8.59625 22.65875 -9 22 C-9.33 23.32 -9.66 24.64 -10 26 C-11.32 25.67 -12.64 25.34 -14 25 C-13.54263735 20.79226362 -12.74416696 17.0309443 -11.4375 13 C-10.11038742 8.78673968 -9.71341964 5.39423211 -10 1 C-6.80658374 -0.59670813 -3.47400235 -0.37074333 0 0 Z " fill="#FEDF65" transform="translate(264,311)"/>
<path d="M0 0 C0.99 0.33 1.98 0.66 3 1 C3.17159443 7.17739955 2.53731344 12.91629688 1.5 19 C1.28537109 20.30517578 1.28537109 20.30517578 1.06640625 21.63671875 C0.71661973 23.75875695 0.3591135 25.87952028 0 28 C-1.32 27.34 -2.64 26.68 -4 26 C-4 24.68 -4 23.36 -4 22 C-6.40877257 22.11341534 -6.40877257 22.11341534 -9 23 C-10.84434349 25.46115547 -10.84434349 25.46115547 -12 28 C-13.32 27.67 -14.64 27.34 -16 27 C-15.57405412 25.55903414 -15.13373367 24.12231288 -14.6875 22.6875 C-14.44386719 21.88699219 -14.20023438 21.08648437 -13.94921875 20.26171875 C-13 18 -13 18 -11.61328125 16.6171875 C-8.41399714 13.41015694 -6.75426691 8.93766978 -4.71875 4.93359375 C-3 2 -3 2 0 0 Z " fill="#FEDF61" transform="translate(258,220)"/>
<path d="M0 0 C2.02840618 2.59635992 2.05915139 4.76540157 1.88671875 8 C1.41535994 10.90765916 0.42689215 12.73609525 -1.4375 15 C-4.43098295 17.09543806 -6.83798059 17.1999733 -10.4375 17 C-10.7675 19.31 -11.0975 21.62 -11.4375 24 C-12.7575 24 -14.0775 24 -15.4375 24 C-14.91208553 16.2501365 -12.88158524 9.3549914 -10.4375 2 C-11.0975 2 -11.7575 2 -12.4375 2 C-12.4375 1.34 -12.4375 0.68 -12.4375 0 C-8.12191233 -1.43852922 -4.26750244 -1.75077023 0 0 Z " fill="#FEDF63" transform="translate(233.4375,312)"/>
<path d="M0 0 C0.70125 -0.01675781 1.4025 -0.03351563 2.125 -0.05078125 C2.74375 0.06910156 3.3625 0.18898437 4 0.3125 C6.78637633 4.4920645 5.79562512 6.45918677 5 11.3125 C3.68 11.3125 2.36 11.3125 1 11.3125 C1 8.6725 1 6.0325 1 3.3125 C-2.12197478 4.6214572 -2.12197478 4.6214572 -4 7.3125 C-4.66790364 10.1840965 -4.66790364 10.1840965 -4 13.3125 C-2.43128463 14.66928697 -2.43128463 14.66928697 -0.5 15.8125 C2.91666667 17.97222222 2.91666667 17.97222222 3.75 21.375 C3 24.3125 3 24.3125 0.9375 26.75 C-2.92788902 28.80605799 -4.8355031 28.52399001 -9 27.3125 C-11.4375 25.5 -11.4375 25.5 -13 23.3125 C-13 21.9925 -13 20.6725 -13 19.3125 C-11.125 19.625 -11.125 19.625 -9 20.3125 C-8.34 21.3025 -7.68 22.2925 -7 23.3125 C-3.93443402 24.04593428 -3.93443402 24.04593428 -1 24.3125 C-1 22.9925 -1 21.6725 -1 20.3125 C-1.928125 20.044375 -2.85625 19.77625 -3.8125 19.5 C-8.48021108 17.76104881 -8.48021108 17.76104881 -10 15.3125 C-10.57447104 10.96293356 -10.30089788 8.84408626 -8.125 5 C-4.18978102 0.02310541 -4.18978102 0.02310541 0 0 Z " fill="#FDDF66" transform="translate(216,220.6875)"/>
<path d="M0 0 C0.8971875 0.309375 0.8971875 0.309375 1.8125 0.625 C0.96816865 8.64614786 -0.10303021 16.63361581 -1.1875 24.625 C-2.5075 24.625 -3.8275 24.625 -5.1875 24.625 C-5.1875 22.975 -5.1875 21.325 -5.1875 19.625 C-7.59627257 19.73841534 -7.59627257 19.73841534 -10.1875 20.625 C-11.2284066 22.26642963 -12.23254326 23.93212215 -13.1875 25.625 C-14.1775 25.625 -15.1675 25.625 -16.1875 25.625 C-15.93129316 24.0184324 -15.65694129 22.4147517 -15.375 20.8125 C-15.22417969 19.91917969 -15.07335937 19.02585937 -14.91796875 18.10546875 C-14.10068462 15.33019911 -13.24835351 14.57108442 -11.1875 12.625 C-9.59438695 9.83290343 -8.14775996 6.98457227 -6.6875 4.12109375 C-4.919105 1.17837395 -3.62613778 -0.62162362 0 0 Z " fill="#FEDF65" transform="translate(249.1875,311.375)"/>
<path d="M0 0 C-0.10981906 4.58382974 -0.2404648 9.16683432 -0.375 13.75 C-0.42140625 15.70292969 -0.42140625 15.70292969 -0.46875 17.6953125 C-0.52675781 19.57089844 -0.52675781 19.57089844 -0.5859375 21.484375 C-0.6173584 22.63647461 -0.6487793 23.78857422 -0.68115234 24.97558594 C-0.98401175 27.84834422 -1.5088238 29.56179611 -3 32 C-3.23187012 31.41508789 -3.46374023 30.83017578 -3.70263672 30.22753906 C-4.75826489 27.56763039 -5.81660382 24.9088084 -6.875 22.25 C-7.23980469 21.32960938 -7.60460937 20.40921875 -7.98046875 19.4609375 C-8.33496094 18.57148438 -8.68945312 17.68203125 -9.0546875 16.765625 C-9.37937012 15.94868164 -9.70405273 15.13173828 -10.03857422 14.29003906 C-10.95992033 11.99826829 -10.95992033 11.99826829 -12.12158203 9.88964844 C-13 8 -13 8 -13 5 C-12.195625 4.71125 -11.39125 4.4225 -10.5625 4.125 C-7.8673532 3.26737432 -7.8673532 3.26737432 -7 1 C-4 0 -4 0 0 0 Z " fill="#D7C97C" transform="translate(121,246)"/>
<path d="M0 0 C2 2 2 2 2.1875 5.5 C2 9 2 9 1 11 C0.34 11 -0.32 11 -1 11 C-1.33 14.63 -1.66 18.26 -2 22 C-3.32 22.33 -4.64 22.66 -6 23 C-8 20 -8 20 -8.4375 16.5625 C-8.68793154 13.04229211 -8.68793154 13.04229211 -10.625 11 C-12 9 -12 9 -11.9375 5.4375 C-11 2 -11 2 -9.375 0 C-5.95223815 -1.44116288 -3.55394628 -0.85557966 0 0 Z " fill="#C9BB28" transform="translate(164,171)"/>
<path d="M0 0 C0.66 0.66 1.32 1.32 2 2 C3.155 2.28875 4.31 2.5775 5.5 2.875 C9 4 9 4 10.5 5.6875 C11.23640822 9.09338803 10.85610798 11.63671867 10 15 C8.375 17 8.375 17 6 18 C2.23445016 17.93393772 -0.06991467 17.86807964 -2.875 15.25 C-4.08863527 12.82272946 -4.62769367 10.68060559 -5 8 C-5.99 8.495 -5.99 8.495 -7 9 C-5.44499019 5.18315774 -2.96404505 2.80804268 0 0 Z " fill="#DCDEDF" transform="translate(152,211)"/>
<path d="M0 0 C2 2 2 2 2.25 5.4375 C2 9 2 9 0 12 C-0.66 12 -1.32 12 -2 12 C-2 9.03 -2 6.06 -2 3 C-5.58923306 4.55210078 -7.33972701 6.07051904 -8.8125 9.625 C-10.28832458 14.08563833 -10.29071346 18.34858466 -10 23 C-8.05234903 22.69060705 -8.05234903 22.69060705 -6 22 C-4.22851628 19.52066803 -4.22851628 19.52066803 -3 17 C-2.34 17.33 -1.68 17.66 -1 18 C-1.35012787 20.59094622 -1.73770965 22.5774211 -3.125 24.8125 C-6.10955231 26.70271646 -8.56540434 26.36799239 -12 26 C-14.1792308 24.40961447 -14.90030041 23.49759975 -15.43359375 20.8359375 C-15.4456946 13.2124029 -13.58449297 7.65393833 -9.1875 1.4375 C-6.03776709 -0.63232448 -3.67876237 -0.40875137 0 0 Z " fill="#F4DB64" transform="translate(176,311)"/>
<path d="M0 0 C0.99 0.33 1.98 0.66 3 1 C5.43780377 1.15269181 7.85283901 1.25682697 10.29296875 1.31640625 C10.99899734 1.33718735 11.70502594 1.35796844 12.43244934 1.37937927 C14.68403551 1.44467491 16.93573662 1.50366647 19.1875 1.5625 C20.7155066 1.60570425 22.24350164 1.64931916 23.77148438 1.69335938 C27.51420562 1.80033574 31.2570423 1.90165922 35 2 C35 2.66 35 3.32 35 4 C24.77 4 14.54 4 4 4 C4.495 6.97 4.495 6.97 5 10 C2.03 10 -0.94 10 -4 10 C-3.34 8.02 -2.68 6.04 -2 4 C-12.23 4 -22.46 4 -33 4 C-33 3.34 -33 2.68 -33 2 C-32.0713916 2.01047363 -31.1427832 2.02094727 -30.18603516 2.03173828 C-26.7457431 2.06579204 -23.30562973 2.09088493 -19.86523438 2.10986328 C-18.3752968 2.11993043 -16.88537903 2.13358518 -15.39550781 2.15087891 C-13.25580972 2.17509653 -11.11637247 2.18647564 -8.9765625 2.1953125 C-7.68830566 2.20578613 -6.40004883 2.21625977 -5.07275391 2.22705078 C-1.89299194 2.32837664 -1.89299194 2.32837664 0 0 Z " fill="#5BD576" transform="translate(249,294)"/>
<path d="M0 0 C0.66 1.65 1.32 3.3 2 5 C-0.64 5 -3.28 5 -6 5 C-6.18175781 5.99 -6.36351562 6.98 -6.55078125 8 C-7.8530661 14.90272112 -9.2196632 21.51254747 -12 28 C-12.99 27.67 -13.98 27.34 -15 27 C-14.54034292 19.69303751 -13.11670277 13.00242552 -11 6 C-12.65 5.67 -14.3 5.34 -16 5 C-16.33 3.68 -16.66 2.36 -17 1 C-11.27959989 0.1679418 -5.77759884 -0.12036664 0 0 Z " fill="#FDDF65" transform="translate(299,220)"/>
<path d="M0 0 C3.23234987 0.50505467 6.14328854 1.37955597 9.1875 2.54296875 C9.90292969 2.81520264 10.61835938 3.08743652 11.35546875 3.36791992 C11.89816406 3.57650635 12.44085938 3.78509277 13 4 C8.66666667 12.66666667 4.33333333 21.33333333 0 30 C-1.51953125 28.140625 -1.51953125 28.140625 -3 26 C-2.6875 23.75 -2.6875 23.75 -2 22 C-2.66 21.67 -3.32 21.34 -4 21 C-3.05125 20.731875 -2.1025 20.46375 -1.125 20.1875 C2.25267273 19.25013412 2.25267273 19.25013412 4 16 C4.07905064 13.66800612 4.08798769 11.33167378 4 9 C1.36 9 -1.28 9 -4 9 C-2.80100302 5.9168649 -1.52299523 2.93720508 0 0 Z " fill="#E4D479" transform="translate(137,250)"/>
<path d="M0 0 C0.33 1.32 0.66 2.64 1 4 C-1.31 4 -3.62 4 -6 4 C-6.66 6.64 -7.32 9.28 -8 12 C-6.68 12.33 -5.36 12.66 -4 13 C-4 13.99 -4 14.98 -4 16 C-5.98 16 -7.96 16 -10 16 C-10.33 18.31 -10.66 20.62 -11 23 C-9.02 23 -7.04 23 -5 23 C-4.67 23.99 -4.34 24.98 -4 26 C-7.63 26 -11.26 26 -15 26 C-16.08532075 22.74403775 -15.9505041 22.05328736 -15.00390625 18.91015625 C-14.77509766 18.12576172 -14.54628906 17.34136719 -14.31054688 16.53320312 C-14.06369141 15.71787109 -13.81683594 14.90253906 -13.5625 14.0625 C-13.07984025 12.45064687 -12.60180499 10.83740011 -12.12890625 9.22265625 C-11.91306885 8.50859619 -11.69723145 7.79453613 -11.47485352 7.05883789 C-10.85017243 4.70253584 -10.85017243 4.70253584 -11 1 C-7.27569643 0.30710631 -3.78916254 -0.11144596 0 0 Z " fill="#FEDF61" transform="translate(282,311)"/>
<path d="M0 0 C2.9375 1.5625 2.9375 1.5625 5 4 C5.10665593 9.65276423 2.92793044 13.37198092 0 18 C-0.33 18 -0.66 18 -1 18 C-1.25 11.375 -1.25 11.375 1 8 C-0.98 8.99 -0.98 8.99 -3 10 C-3.99 9.34 -4.98 8.68 -6 8 C-5.01 9.485 -5.01 9.485 -4 11 C-3.875 13.6875 -3.875 13.6875 -4 16 C-8.90914826 11.24921136 -8.90914826 11.24921136 -9.25 6.5625 C-9 3 -9 3 -7.875 1.0625 C-5.05105282 -0.53773673 -3.19529239 -0.44734094 0 0 Z " fill="#FED76B" transform="translate(274,269)"/>
<path d="M0 0 C0.33 0 0.66 0 1 0 C1.33 3.63 1.66 7.26 2 11 C2.78375 10.175 3.5675 9.35 4.375 8.5 C7 6 7 6 9 6 C8.43016854 14.84221224 5.94142453 20.43316236 0 27 C-0.33 27 -0.66 27 -1 27 C-1.02932572 23.81251971 -1.04690739 20.62507472 -1.0625 17.4375 C-1.07087891 16.54224609 -1.07925781 15.64699219 -1.08789062 14.72460938 C-1.10629571 9.70002057 -0.86266398 4.95182709 0 0 Z " fill="#C6BD82" transform="translate(121,244)"/>
<path d="M0 0 C0.99 0 1.98 0 3 0 C3 1.32 3 2.64 3 4 C3.66 4 4.32 4 5 4 C4.67 4.66 4.34 5.32 4 6 C4.66 6.66 5.32 7.32 6 8 C4.7934375 8.3403125 4.7934375 8.3403125 3.5625 8.6875 C2.716875 9.120625 1.87125 9.55375 1 10 C0.10613836 12.54775306 0.10613836 12.54775306 0 15 C1.32 13.68 2.64 12.36 4 11 C4.99 11.33 5.98 11.66 7 12 C7 12.66 7 13.32 7 14 C6.2575 14.28875 5.515 14.5775 4.75 14.875 C2.06675308 15.920033 2.06675308 15.920033 -0.125 17.125 C-2 18 -2 18 -5 18 C-5 17.34 -5 16.68 -5 16 C-5.515625 15.54625 -6.03125 15.0925 -6.5625 14.625 C-7.036875 14.08875 -7.51125 13.5525 -8 13 C-7.6875 10.8125 -7.6875 10.8125 -7 9 C-6.34 9 -5.68 9 -5 9 C-3.08152136 6.12228205 -1.49920512 3.11373372 0 0 Z " fill="#AAB3BE" transform="translate(186,256)"/>
<path d="M0 0 C3.80443255 0.54349036 5.6081779 2.03084153 8 5 C8.875 7.5 8.875 7.5 9 10 C8.68289062 10.59683594 8.36578125 11.19367188 8.0390625 11.80859375 C6.41561366 15.23248397 6.54672968 18.70150557 6.34375 22.44140625 C6 25 6 25 4 28 C4 24.04 4 20.08 4 16 C-0.627322 15.627322 -0.627322 15.627322 -3 17 C-5.48772258 13.7162062 -6.03180444 12.38801417 -5.6875 8.1875 C-5.460625 7.135625 -5.23375 6.08375 -5 5 C-4.67 5.99 -4.34 6.98 -4 8 C-3.34 8 -2.68 8 -2 8 C-2.33 9.32 -2.66 10.64 -3 12 C-0.18490007 14.2773501 -0.18490007 14.2773501 3 14 C3 10.32780758 2.1969991 7.46499741 1 4 C0.01 3.34 -0.98 2.68 -2 2 C-1.34 2 -0.68 2 0 2 C0 1.34 0 0.68 0 0 Z " fill="#C2C7CD" transform="translate(172,209)"/>
<path d="M0 0 C-0.25 2.875 -0.25 2.875 -1 6 C-3.0625 7.375 -3.0625 7.375 -5 8 C-4.67 8.66 -4.34 9.32 -4 10 C-2.68 10 -1.36 10 0 10 C-0.45082469 11.46067199 -0.91093537 12.91848032 -1.375 14.375 C-1.63023437 15.18710937 -1.88546875 15.99921875 -2.1484375 16.8359375 C-3 19 -3 19 -5 21 C-5.99 21 -6.98 21 -8 21 C-10.60133996 15.79732008 -8.66419455 10.20592212 -6.94921875 5.015625 C-5.24665035 1.40029456 -4.07819385 0 0 0 Z " fill="#8CC2D1" transform="translate(191,314)"/>
<path d="M0 0 C2.25 0.4375 2.25 0.4375 3.25 1.4375 C3.64113371 5.50529056 3.61956202 7.79418834 1.5625 11.375 C-0.75 13.4375 -0.75 13.4375 -3.375 13.875 C-5.75 13.4375 -5.75 13.4375 -7.75 11.4375 C-8.48920864 7.63585557 -7.73295591 6.41169038 -5.5625 3.125 C-2.75 0.4375 -2.75 0.4375 0 0 Z " fill="#495C78" transform="translate(138.75,257.5625)"/>
<path d="M0 0 C1.59124662 2.90271361 2.44614993 5.51997963 3.0703125 8.765625 C3.24433594 9.65507812 3.41835937 10.54453125 3.59765625 11.4609375 C3.77167969 12.38132812 3.94570312 13.30171875 4.125 14.25 C4.30675781 15.18585938 4.48851563 16.12171875 4.67578125 17.0859375 C5.12242304 19.38966885 5.5636328 21.6943043 6 24 C3 23 3 23 1.92504883 21.28173828 C1.60560303 20.55196777 1.28615723 19.82219727 0.95703125 19.0703125 C0.60576172 18.27496094 0.25449219 17.47960937 -0.10742188 16.66015625 C-0.64206055 15.40525391 -0.64206055 15.40525391 -1.1875 14.125 C-1.55552734 13.29613281 -1.92355469 12.46726562 -2.30273438 11.61328125 C-5 5.41807746 -5 5.41807746 -5 2 C-3.35 1.34 -1.7 0.68 0 0 Z " fill="#E9D674" transform="translate(113,249)"/>
<path d="M0 0 C0.66 0.33 1.32 0.66 2 1 C1.505 1.5775 1.01 2.155 0.5 2.75 C-1.36980013 5.10400629 -1.36980013 5.10400629 -1 9 C-3.99903058 12.42746352 -7.40023986 15.22304218 -11 18 C-12.46997261 13.72371604 -11.67639985 10.76659826 -10.01953125 6.7265625 C-8.51287632 4.17506259 -6.79483796 3.74983457 -4 3 C-2.63634717 2.04175747 -1.29205831 1.05278825 0 0 Z " fill="#81BEDD" transform="translate(177,277)"/>
<path d="M0 0 C3.4375 0.75 3.4375 0.75 5.4375 2.75 C5.5625 6.375 5.5625 6.375 5.4375 9.75 C4.4475 10.08 3.4575 10.41 2.4375 10.75 C2.4375 9.1 2.4375 7.45 2.4375 5.75 C-0.8625 5.75 -4.1625 5.75 -7.5625 5.75 C-6.28234219 0.62936878 -5.29871789 -0.37183985 0 0 Z " fill="#C8BB5A" transform="translate(160.5625,170.25)"/>
<path d="M0 0 C3.96 0.33 7.92 0.66 12 1 C11.01 1.66 10.02 2.32 9 3 C8.67 3.99 8.34 4.98 8 6 C7.195625 6.45375 6.39125 6.9075 5.5625 7.375 C2.55265042 9.2836851 1.99604801 10.64965669 1 14 C0.67 14 0.34 14 0 14 C0 9.38 0 4.76 0 0 Z " fill="#E8D572" transform="translate(122,244)"/>
<path d="M0 0 C1.65 0 3.3 0 5 0 C6.25664978 2.90600261 7 4.79604584 7 8 C7.66 8.33 8.32 8.66 9 9 C8.01 10.485 8.01 10.485 7 12 C4.625 11.6875 4.625 11.6875 2 11 C1.34 10.01 0.68 9.02 0 8 C0.66 8 1.32 8 2 8 C2 7.01 2 6.02 2 5 C1.34 5 0.68 5 0 5 C0 3.35 0 1.7 0 0 Z " fill="#E8E8E7" transform="translate(168,212)"/>
<path d="M0 0 C1.32 0.33 2.64 0.66 4 1 C2.47512736 8.03787373 0.77149249 15.0203196 -1 22 C-1.99 21.67 -2.98 21.34 -4 21 C-3.48200585 15.99272317 -2.6261347 11.77677067 -1 7 C-0.62468554 4.67305036 -0.28082798 2.34023315 0 0 Z " fill="#F4EFDC" transform="translate(219,313)"/>
<path d="M0 0 C-0.41153737 4.97093824 -0.79600832 9.44508386 -3 14 C-4.32 13.34 -5.64 12.68 -7 12 C-7.44117322 7.50003317 -7.52867608 5.65388883 -4.625 2.0625 C-2 0 -2 0 0 0 Z " fill="#4C5F79" transform="translate(130,250)"/>
<path d="M0 0 C0.99 0.33 1.98 0.66 3 1 C2.67 1.99 2.34 2.98 2 4 C2.33 4.804375 2.66 5.60875 3 6.4375 C4 9 4 9 3.8125 11.25 C3.544375 11.8275 3.27625 12.405 3 13 C2.01 13.33 1.02 13.66 0 14 C-2.6875 12.5625 -2.6875 12.5625 -5 11 C-4.01 10.01 -3.02 9.02 -2 8 C-1.34 8.33 -0.68 8.66 0 9 C0 8.34 0 7.68 0 7 C-0.598125 6.731875 -1.19625 6.46375 -1.8125 6.1875 C-3.97224808 5.01506533 -5.35790256 3.80630718 -7 2 C-3.535 1.505 -3.535 1.505 0 1 C0 0.67 0 0.34 0 0 Z " fill="#9CA6B3" transform="translate(133,273)"/>
<path d="M0 0 C0.99 0 1.98 0 3 0 C3 1.32 3 2.64 3 4 C3.66 4 4.32 4 5 4 C4.67 4.66 4.34 5.32 4 6 C4.66 6.66 5.32 7.32 6 8 C3 10 3 10 0.375 10.5 C-0.40875 10.665 -1.1925 10.83 -2 11 C-2.33 11.66 -2.66 12.32 -3 13 C-3.66 13 -4.32 13 -5 13 C-4.31740614 5.76450512 -4.31740614 5.76450512 -1 3 C-0.67 2.01 -0.34 1.02 0 0 Z " fill="#BFCBD3" transform="translate(186,256)"/>
<path d="M0 0 C1.32 0 2.64 0 4 0 C4.75 2.6875 4.75 2.6875 5 6 C3.21514706 8.9747549 2.04634229 10.62215417 -1.25 11.8125 C-1.8275 11.874375 -2.405 11.93625 -3 12 C-2.40075776 7.80530429 -1.42500059 3.99000166 0 0 Z " fill="#F3F0E2" transform="translate(271,224)"/>
<path d="M0 0 C1.32 0.33 2.64 0.66 4 1 C4.44117322 5.49996683 4.52867608 7.34611117 1.625 10.9375 C-1 13 -1 13 -3 13 C-2.343621 8.51474352 -1.29925791 4.33085971 0 0 Z " fill="#F4F0E2" transform="translate(227,314)"/>
<path d="M0 0 C0.33 0.99 0.66 1.98 1 3 C1.66 3 2.32 3 3 3 C2.67 4.32 2.34 5.64 2 7 C4.81509993 9.2773501 4.81509993 9.2773501 8 9 C8.66 8.34 9.32 7.68 10 7 C10.66 7 11.32 7 12 7 C11.88590318 9.10478604 11.75834639 11.20884577 11.625 13.3125 C11.55539063 14.48425781 11.48578125 15.65601563 11.4140625 16.86328125 C11 20 11 20 9 23 C9 19.04 9 15.08 9 11 C4.372678 10.627322 4.372678 10.627322 2 12 C-0.48772258 8.7162062 -1.03180444 7.38801417 -0.6875 3.1875 C-0.460625 2.135625 -0.23375 1.08375 0 0 Z " fill="#A5ADB9" transform="translate(167,214)"/>
<path d="M0 0 C0.66 0 1.32 0 2 0 C1.59639243 5.24689842 0.94225829 7.5355912 -3 11 C-4.23512079 13.13309192 -4.23512079 13.13309192 -5 15 C-5.66 14.01 -6.32 13.02 -7 12 C-5.96476617 6.82383085 -3.55291258 3.73055821 0 0 Z " fill="#DFE0DE" transform="translate(126,264)"/>
<path d="M0 0 C0.66 0 1.32 0 2 0 C3.4216319 3.3171411 4.39009109 6.44219804 5 10 C2.03 10 -0.94 10 -4 10 C-2.68 6.7 -1.36 3.4 0 0 Z " fill="#20AD3E" transform="translate(249,294)"/>
<path d="M0 0 C2.05078125 0.03255208 4.1015625 0.06510417 6.15234375 0.09765625 C6.48234375 0.75765625 6.81234375 1.41765625 7.15234375 2.09765625 C5.71484375 4.72265625 5.71484375 4.72265625 4.15234375 7.09765625 C1.77734375 6.91015625 1.77734375 6.91015625 -0.84765625 6.09765625 C-2.16015625 3.53515625 -2.16015625 3.53515625 -2.84765625 1.09765625 C-1.84765625 0.09765625 -1.84765625 0.09765625 0 0 Z " fill="#FEB94A" transform="translate(224.84765625,261.90234375)"/>
<path d="M0 0 C0.99 0.33 1.98 0.66 3 1 C2.01 6.28 1.02 11.56 0 17 C-1.32 16.67 -2.64 16.34 -4 16 C-4 11.98012591 -3.30729686 9.50847849 -2 5.75 C-1.62875 4.67234375 -1.2575 3.5946875 -0.875 2.484375 C-0.441875 1.25460937 -0.441875 1.25460937 0 0 Z " fill="#87BDD1" transform="translate(195,321)"/>
<path d="M0 0 C1.32 0.33 2.64 0.66 4 1 C4.75 3.1875 4.75 3.1875 5 6 C3.25 8.8125 3.25 8.8125 1 11 C0.01 11 -0.98 11 -2 11 C-1.34 7.37 -0.68 3.74 0 0 Z " fill="#F3F0E2" transform="translate(290,314)"/>
<path d="M0 0 C1.65 0.33 3.3 0.66 5 1 C4.39169139 7.44807122 4.39169139 7.44807122 2.625 9.9375 C1 11 1 11 -2 11 C-1.34 7.37 -0.68 3.74 0 0 Z " fill="#F3F0E2" transform="translate(259,314)"/>
<path d="M0 0 C0.33 0.66 0.66 1.32 1 2 C1.66 2.33 2.32 2.66 3 3 C2.505 3.556875 2.01 4.11375 1.5 4.6875 C-0.2666573 7.41109668 -0.33531397 8.81451733 0 12 C0.33 12.66 0.66 13.32 1 14 C-1.31 14.33 -3.62 14.66 -6 15 C-5.125 7.375 -5.125 7.375 -4 4 C-4 4.66 -4 5.32 -4 6 C-3.34 6 -2.68 6 -2 6 C-1.34 4.02 -0.68 2.04 0 0 Z " fill="#D2C57B" transform="translate(132,257)"/>
<path d="M0 0 C0.93423645 3.01031744 1.04449911 3.86650268 0 7 C-6 5 -6 5 -12 3 C-12.28875 3.969375 -12.5775 4.93875 -12.875 5.9375 C-14 9 -14 9 -16 10 C-14.94124926 6.59687262 -13.99097846 3.98646769 -12 1 C-9.03 1.495 -9.03 1.495 -6 2 C-6 2.66 -6 3.32 -6 4 C-2.81765895 2.24545615 -2.81765895 2.24545615 0 0 Z " fill="#B6B593" transform="translate(149,247)"/>
<path d="M0 0 C1.26026798 2.52053595 0.91874445 3.8542098 0.5625 6.625 C0.46066406 7.44226563 0.35882813 8.25953125 0.25390625 9.1015625 C0.17011719 9.72804687 0.08632812 10.35453125 0 11 C-1.32 11.33 -2.64 11.66 -4 12 C-6.56616632 8.15075052 -6.55097676 5.5650696 -7 1 C-6.34 1 -5.68 1 -5 1 C-5 2.65 -5 4.3 -5 6 C-3.68 6 -2.36 6 -1 6 C-1.020625 5.195625 -1.04125 4.39125 -1.0625 3.5625 C-1 1 -1 1 0 0 Z " fill="#757466" transform="translate(162,182)"/>
<path d="M0 0 C0.598125 0.185625 1.19625 0.37125 1.8125 0.5625 C4.16408762 1.22093687 4.16408762 1.22093687 7 0 C6.67 0.99 6.34 1.98 6 3 C5.93334624 4.39439664 5.91461801 5.79169875 5.9375 7.1875 C5.958125 8.445625 5.97875 9.70375 6 11 C4.35 10.67 2.7 10.34 1 10 C1.020625 8.906875 1.04125 7.81375 1.0625 6.6875 C1.18544452 3.05615809 1.18544452 3.05615809 0 0 Z " fill="#F5EBCB" transform="translate(268,277)"/>
<path d="M0 0 C1.45823212 -0.0270043 2.91660675 -0.04639787 4.375 -0.0625 C5.18710938 -0.07410156 5.99921875 -0.08570313 6.8359375 -0.09765625 C9 0 9 0 11 1 C10.67 1.66 10.34 2.32 10 3 C9.01 3 8.02 3 7 3 C7 2.34 7 1.68 7 1 C6.34 1 5.68 1 5 1 C5 2.65 5 4.3 5 6 C4.34 6 3.68 6 3 6 C2.67 6.66 2.34 7.32 2 8 C-0.1519437 4.77208445 -0.20086443 3.71599191 0 0 Z " fill="#B7B045" transform="translate(152,175)"/>
<path d="M0 0 C1.32 0.33 2.64 0.66 4 1 C3.34 1 2.68 1 2 1 C1.8865625 1.57234375 1.773125 2.1446875 1.65625 2.734375 C0.93301578 5.23125506 -0.10580312 7.06143513 -1.5 9.25 C-1.9434375 9.95640625 -2.386875 10.6628125 -2.84375 11.390625 C-3.2253125 11.92171875 -3.606875 12.4528125 -4 13 C-4.33 13 -4.66 13 -5 13 C-5.64165788 7.73840541 -4.20577001 5.31407151 -1.09375 1.3203125 C-0.55234375 0.66675781 -0.55234375 0.66675781 0 0 Z " fill="#E4EBEC" transform="translate(184,255)"/>
<path d="M0 0 C0.99 0.33 1.98 0.66 3 1 C2.67 1.99 2.34 2.98 2 4 C2.87483915 6.16715557 2.87483915 6.16715557 4 8 C1.64828869 7.40138258 -0.6859378 6.73075648 -3 6 C-3.33 5.34 -3.66 4.68 -4 4 C-4.99 3.34 -5.98 2.68 -7 2 C-3.535 1.505 -3.535 1.505 0 1 C0 0.67 0 0.34 0 0 Z " fill="#C8CAC6" transform="translate(133,273)"/>
<path d="M0 0 C0.66 0 1.32 0 2 0 C3.5625 2.8125 3.5625 2.8125 5 6 C4.67 6.99 4.34 7.98 4 9 C3.01 9 2.02 9 1 9 C-0.4783226 6.04335481 -0.06032783 3.25770263 0 0 Z " fill="#8FC7D4" transform="translate(182,326)"/>
<path d="M0 0 C0.33 0 0.66 0 1 0 C0.85904936 1.6254308 0.71207913 3.25034051 0.5625 4.875 C0.48128906 5.77992188 0.40007812 6.68484375 0.31640625 7.6171875 C0 10 0 10 -1 12 C-2.32 11.67 -3.64 11.34 -5 11 C-3.35 7.37 -1.7 3.74 0 0 Z " fill="#F4EED7" transform="translate(256,226)"/>
<path d="M0 0 C0.99 1.32 1.98 2.64 3 4 C1.7934375 4.556875 1.7934375 4.556875 0.5625 5.125 C-2.31172896 6.8109337 -2.31172896 6.8109337 -2.8125 10.1875 C-2.874375 11.115625 -2.93625 12.04375 -3 13 C-3.33 13 -3.66 13 -4 13 C-4.33 11.35 -4.66 9.7 -5 8 C-5.99 8.495 -5.99 8.495 -7 9 C-5.44499019 5.18315774 -2.96404505 2.80804268 0 0 Z " fill="#A3ACB8" transform="translate(152,211)"/>
<path d="M0 0 C0.33 0.99 0.66 1.98 1 3 C1.66 3 2.32 3 3 3 C2.79375 3.598125 2.5875 4.19625 2.375 4.8125 C1.69328085 7.28450846 1.69328085 7.28450846 4 10 C3.34 10.66 2.68 11.32 2 12 C-0.48772258 8.7162062 -1.03180444 7.38801417 -0.6875 3.1875 C-0.460625 2.135625 -0.23375 1.08375 0 0 Z " fill="#8894A5" transform="translate(167,214)"/>
<path d="M0 0 C1.12525742 3.37577225 0.87828528 4.27858292 -0.1875 7.5625 C-0.54908203 8.74005859 -0.54908203 8.74005859 -0.91796875 9.94140625 C-2.2328139 12.44293474 -3.40563017 13.00629727 -6 14 C-4.50829734 9.0276578 -2.39542583 4.58154261 0 0 Z " fill="#F5EDCD" transform="translate(214,319)"/>
<path d="M0 0 C1.2380014 3.57644848 0.74926071 6.33694766 0 10 C-1.32 10 -2.64 10 -4 10 C-2.8905928 6.51329166 -1.73662334 3.22515763 0 0 Z " fill="#F4EFD8" transform="translate(245,318)"/>
<path d="M0 0 C0.66 0.33 1.32 0.66 2 1 C1.505 1.5775 1.01 2.155 0.5 2.75 C-1.36980013 5.10400629 -1.36980013 5.10400629 -1 9 C-1.33 8.01 -1.66 7.02 -2 6 C-2.99 6 -3.98 6 -5 6 C-3.63016497 2.83884224 -3.0109362 2.0072908 0 0 Z " fill="#7BA4BE" transform="translate(177,277)"/>
<path d="M0 0 C0.99 0.33 1.98 0.66 3 1 C2.34 3.64 1.68 6.28 1 9 C0.01 9 -0.98 9 -2 9 C-1.34 6.03 -0.68 3.06 0 0 Z " fill="#9ACAC7" transform="translate(195,321)"/>
<path d="M0 0 C0.66 0 1.32 0 2 0 C2 2.31 2 4.62 2 7 C2.66 7.33 3.32 7.66 4 8 C2.35 7.67 0.7 7.34 -1 7 C-0.67 4.69 -0.34 2.38 0 0 Z " fill="#F6DFA2" transform="translate(270,280)"/>
<path d="M0 0 C2.02045442 0.60183749 4.02111039 1.27306096 6 2 C6.33 2.66 6.66 3.32 7 4 C3.7 4 0.4 4 -3 4 C-2.01 2.68 -1.02 1.36 0 0 Z " fill="#F9EE4E" transform="translate(156,172)"/>
<path d="M0 0 C0.93423645 3.01031744 1.04449911 3.86650268 0 7 C-1.32 6.34 -2.64 5.68 -4 5 C-2.68 3.35 -1.36 1.7 0 0 Z " fill="#84B9D4" transform="translate(149,247)"/>
<path d="M0 0 C0.99 0 1.98 0 3 0 C2.67 2.31 2.34 4.62 2 7 C1.01 6.67 0.02 6.34 -1 6 C-0.67 4.02 -0.34 2.04 0 0 Z " fill="#F4EFD9" transform="translate(242,238)"/>
<path d="M0 0 C1.65 0 3.3 0 5 0 C4.67 1.32 4.34 2.64 4 4 C2.68 3.67 1.36 3.34 0 3 C0 2.01 0 1.02 0 0 Z " fill="#606668" transform="translate(157,190)"/>
<path d="M0 0 C0.33 0 0.66 0 1 0 C1.08096803 1.45742463 1.13917774 2.91612807 1.1875 4.375 C1.22230469 5.18710937 1.25710937 5.99921875 1.29296875 6.8359375 C1.19628906 7.55007813 1.09960938 8.26421875 1 9 C0.01 9.66 -0.98 10.32 -2 11 C-1.34 7.37 -0.68 3.74 0 0 Z " fill="#8FC8D8" transform="translate(201,321)"/>
<path d="M0 0 C1.32 0.66 2.64 1.32 4 2 C3.01 2.33 2.02 2.66 1 3 C1.66 3.66 2.32 4.32 3 5 C1.35 4.67 -0.3 4.34 -2 4 C-1.34 2.68 -0.68 1.36 0 0 Z " fill="#F7D9A9" transform="translate(226,277)"/>
<path d="M0 0 C2.875 -0.1875 2.875 -0.1875 6 0 C6.66 0.99 7.32 1.98 8 3 C5.36 3 2.72 3 0 3 C0 2.01 0 1.02 0 0 Z " fill="#F1D29F" transform="translate(224,268)"/>
</svg>
